<svg xmlns="http://www.w3.org/2000/svg" width="960" height="540" viewBox="0 0 960 540">
<defs>
  <linearGradient id="sky" x1="0" y1="0" x2="0" y2="1">
    <stop offset="0" stop-color="#040811"/><stop offset=".3" stop-color="#08122a"/><stop offset=".5" stop-color="#132341"/><stop offset=".57" stop-color="#28405f"/><stop offset=".63" stop-color="#4d6c7c"/><stop offset=".64" stop-color="#1b2a3c"/><stop offset="1" stop-color="#050a12"/>
  </linearGradient>
  <radialGradient id="afterglow" cx="660" cy="350" r="420" gradientTransform="translate(0 192.5) scale(1 .45)" gradientUnits="userSpaceOnUse">
    <stop offset="0" stop-color="#ffb071" stop-opacity=".85"/><stop offset=".22" stop-color="#c8704c" stop-opacity=".45"/><stop offset=".6" stop-color="#5a3a52" stop-opacity=".14"/><stop offset="1" stop-color="#2a2446" stop-opacity="0"/>
  </radialGradient>
  <radialGradient id="cityglow" cx="480" cy="352" r="520" gradientTransform="translate(0 246) scale(1 .3)" gradientUnits="userSpaceOnUse">
    <stop offset="0" stop-color="#5fa4b8" stop-opacity=".22"/><stop offset="1" stop-color="#5fa4b8" stop-opacity="0"/>
  </radialGradient>
  <linearGradient id="haze" x1="0" y1="0" x2="0" y2="1">
    <stop offset="0" stop-color="#6d8ea3" stop-opacity="0"/><stop offset=".7" stop-color="#6d8ea3" stop-opacity=".22"/><stop offset="1" stop-color="#8fb0bd" stop-opacity=".34"/>
  </linearGradient>
  <linearGradient id="farFill" x1="0" y1="0" x2="0" y2="1">
    <stop offset="0" stop-color="#3a5068"/><stop offset="1" stop-color="#4e6a7c"/>
  </linearGradient>
  <linearGradient id="midFill" x1="0" y1="0" x2="1" y2="0">
    <stop offset="0" stop-color="#1c2b3e"/><stop offset=".65" stop-color="#22344a"/><stop offset="1" stop-color="#2a3446"/>
  </linearGradient>
  <linearGradient id="nearFill" x1="0" y1="0" x2="0" y2="1">
    <stop offset="0" stop-color="#101b29"/><stop offset="1" stop-color="#0a121c"/>
  </linearGradient>
  <linearGradient id="sea" x1="0" y1="0" x2="0" y2="1">
    <stop offset="0" stop-color="#22384b"/><stop offset=".22" stop-color="#101d2b"/><stop offset="1" stop-color="#04080e"/>
  </linearGradient>
  <radialGradient id="seaPool" cx=".5" cy="0" r=".8"><stop offset="0" stop-color="#e89a62" stop-opacity=".26"/><stop offset=".45" stop-color="#b0704f" stop-opacity=".1"/><stop offset="1" stop-color="#b0704f" stop-opacity="0"/></radialGradient>
  <linearGradient id="seaGlow" x1="0" y1="0" x2="0" y2="1">
    <stop offset="0" stop-color="#e59a62" stop-opacity=".3"/><stop offset="1" stop-color="#e59a62" stop-opacity="0"/>
  </linearGradient>
  <linearGradient id="tether" x1="0" y1="0" x2="0" y2="1">
    <stop offset="0" stop-color="#9fc7de" stop-opacity="0"/><stop offset=".5" stop-color="#9fc7de" stop-opacity=".22"/><stop offset="1" stop-color="#cfe6ef" stop-opacity=".5"/>
  </linearGradient>
  <linearGradient id="ringFade" x1="0" y1="0" x2="1" y2="0">
    <stop offset="0" stop-color="#8fb3cc" stop-opacity=".05"/><stop offset=".35" stop-color="#a9c8da" stop-opacity=".42"/><stop offset=".7" stop-color="#c9b39c" stop-opacity=".36"/><stop offset="1" stop-color="#8fb3cc" stop-opacity=".06"/>
  </linearGradient>
  <linearGradient id="vignette" x1="0" y1="0" x2="0" y2="1">
    <stop offset="0" stop-color="#02050b" stop-opacity=".35"/><stop offset=".25" stop-color="#02050b" stop-opacity="0"/><stop offset=".78" stop-color="#02050b" stop-opacity="0"/><stop offset="1" stop-color="#02050b" stop-opacity=".55"/>
  </linearGradient>
  <filter id="cirrus" x="0" y="0" width="100%" height="100%" color-interpolation-filters="sRGB">
    <feTurbulence type="fractalNoise" baseFrequency=".0028 .045" numOctaves="4" seed="31"/>
    <feColorMatrix type="matrix" values="0 0 0 0 .66  0 0 0 0 .74  0 0 0 0 .86  0 0 0 1.9 -1.02"/>
  </filter>
  <filter id="ripple" x="0" y="0" width="100%" height="100%" color-interpolation-filters="sRGB">
    <feTurbulence type="fractalNoise" baseFrequency=".004 .16" numOctaves="3" seed="8"/>
    <feColorMatrix type="matrix" values="0 0 0 0 .55  0 0 0 0 .68  0 0 0 0 .78  0 0 0 1.6 -.95"/>
  </filter>
  <filter id="soft" x="-10%" y="-10%" width="120%" height="120%"><feGaussianBlur stdDeviation="1.1"/></filter>
  <filter id="bloom" x="-300%" y="-300%" width="700%" height="700%"><feGaussianBlur stdDeviation="1.6" result="b"/><feMerge><feMergeNode in="b"/><feMergeNode in="b"/><feMergeNode in="SourceGraphic"/></feMerge></filter>
  <linearGradient id="bandShade" x1="0" y1="0" x2="0" y2="1">
    <stop offset="0" stop-color="#050a16" stop-opacity="0"/><stop offset="1" stop-color="#050a16" stop-opacity=".5"/>
  </linearGradient>
</defs>
<rect width="960" height="540" fill="url(#sky)"/>
<g fill="#dbe8ff"><circle cx="323.6" cy="37.8" r="0.5" opacity="0.50"/><circle cx="507.1" cy="1.2" r="0.5" opacity="0.84"/><circle cx="173" cy="76.1" r="0.4" opacity="0.47"/><circle cx="906.5" cy="160.6" r="0.7" opacity="0.43"/><circle cx="86.6" cy="3.1" r="0.7" opacity="0.26"/><circle cx="303.4" cy="58.2" r="0.5" opacity="0.36"/><circle cx="937.9" cy="79.9" r="0.7" opacity="0.72"/><circle cx="778.6" cy="186.3" r="0.4" opacity="0.58"/><circle cx="470.7" cy="182.4" r="0.5" opacity="0.76"/><circle cx="552.7" cy="86.3" r="0.5" opacity="0.38"/><circle cx="673.9" cy="245.1" r="0.7" opacity="0.71"/><circle cx="71" cy="103.7" r="0.6" opacity="0.46"/><circle cx="575.2" cy="0.1" r="0.5" opacity="0.31"/><circle cx="227.7" cy="0.6" r="0.8" opacity="0.72"/><circle cx="376.3" cy="238.2" r="0.4" opacity="0.29"/><circle cx="410.2" cy="31.6" r="0.9" opacity="0.58"/><circle cx="606.5" cy="133.5" r="0.6" opacity="0.45"/><circle cx="203.6" cy="213.8" r="0.5" opacity="0.47"/><circle cx="137.6" cy="112.5" r="0.6" opacity="0.73"/><circle cx="915" cy="171.9" r="0.7" opacity="0.40"/><circle cx="738.1" cy="161.3" r="0.5" opacity="0.55"/><circle cx="197.8" cy="195.1" r="0.7" opacity="0.37"/><circle cx="887.6" cy="184.2" r="0.9" opacity="0.57"/><circle cx="896.2" cy="12.5" r="0.4" opacity="0.78"/><circle cx="931" cy="226.2" r="0.5" opacity="0.27"/><circle cx="509.7" cy="233.7" r="0.8" opacity="0.50"/><circle cx="373.2" cy="10.1" r="0.7" opacity="0.44"/><circle cx="637" cy="223.7" r="0.8" opacity="0.39"/><circle cx="753.2" cy="5.8" r="0.5" opacity="0.78"/><circle cx="880.9" cy="45.8" r="0.8" opacity="0.27"/><circle cx="658.5" cy="194.9" r="0.6" opacity="0.71"/><circle cx="252.5" cy="3.6" r="0.5" opacity="0.62"/><circle cx="159.7" cy="156.2" r="0.4" opacity="0.62"/><circle cx="315.4" cy="78.3" r="0.7" opacity="0.30"/><circle cx="264.7" cy="221.7" r="0.4" opacity="0.33"/><circle cx="470.3" cy="17.3" r="0.6" opacity="0.74"/><circle cx="273.1" cy="167" r="0.8" opacity="0.50"/><circle cx="739.3" cy="0.2" r="0.8" opacity="0.64"/><circle cx="710.4" cy="54.2" r="0.8" opacity="0.47"/><circle cx="530" cy="32.1" r="0.5" opacity="0.36"/><circle cx="322.8" cy="222.5" r="0.7" opacity="0.39"/><circle cx="100.6" cy="41.3" r="0.7" opacity="0.80"/><circle cx="571.2" cy="161.5" r="0.6" opacity="0.34"/><circle cx="883.5" cy="29.9" r="0.5" opacity="0.69"/><circle cx="345.6" cy="70.1" r="0.7" opacity="0.71"/><circle cx="829.9" cy="156.3" r="0.5" opacity="0.38"/><circle cx="99.9" cy="236.3" r="0.6" opacity="0.84"/><circle cx="134.6" cy="98.7" r="0.6" opacity="0.36"/><circle cx="45.5" cy="62.1" r="0.5" opacity="0.61"/><circle cx="59.8" cy="107.5" r="0.6" opacity="0.35"/><circle cx="86.6" cy="136.7" r="0.4" opacity="0.39"/><circle cx="619.8" cy="110.5" r="0.5" opacity="0.26"/><circle cx="533.6" cy="107" r="0.4" opacity="0.35"/><circle cx="5.1" cy="50.6" r="0.5" opacity="0.62"/><circle cx="718.5" cy="171.6" r="0.7" opacity="0.39"/><circle cx="547.2" cy="67.5" r="0.5" opacity="0.58"/><circle cx="308.2" cy="174.9" r="0.4" opacity="0.79"/><circle cx="102.7" cy="84.9" r="0.6" opacity="0.77"/><circle cx="440" cy="20.7" r="0.4" opacity="0.43"/><circle cx="537.6" cy="31.2" r="0.5" opacity="0.83"/><circle cx="834.8" cy="117.5" r="0.4" opacity="0.43"/><circle cx="671.9" cy="200" r="0.5" opacity="0.58"/><circle cx="572.6" cy="24.3" r="0.7" opacity="0.73"/><circle cx="563.7" cy="248.5" r="0.8" opacity="0.52"/><circle cx="606.1" cy="163.5" r="0.5" opacity="0.79"/><circle cx="814" cy="63.7" r="0.4" opacity="0.74"/><circle cx="335.3" cy="22" r="0.8" opacity="0.40"/><circle cx="730.5" cy="224.5" r="0.9" opacity="0.34"/><circle cx="722" cy="187.6" r="0.5" opacity="0.50"/><circle cx="152.5" cy="92.1" r="0.4" opacity="0.50"/><circle cx="504" cy="5.8" r="0.5" opacity="0.46"/><circle cx="135" cy="9.5" r="0.8" opacity="0.45"/><circle cx="869.5" cy="168.2" r="0.5" opacity="0.73"/><circle cx="573.2" cy="178.1" r="0.6" opacity="0.62"/><circle cx="351.7" cy="233.1" r="0.5" opacity="0.27"/><circle cx="526.6" cy="0" r="0.5" opacity="0.48"/><circle cx="102.9" cy="76.3" r="0.7" opacity="0.42"/><circle cx="284" cy="107.5" r="0.5" opacity="0.51"/><circle cx="348.9" cy="129.5" r="0.8" opacity="0.59"/><circle cx="366.9" cy="11.2" r="0.7" opacity="0.79"/><circle cx="503.6" cy="27.1" r="0.7" opacity="0.48"/><circle cx="355" cy="51.5" r="0.6" opacity="0.60"/><circle cx="63.2" cy="19.6" r="0.4" opacity="0.60"/><circle cx="409.6" cy="77.3" r="0.4" opacity="0.69"/><circle cx="280.3" cy="95.6" r="0.5" opacity="0.32"/><circle cx="698.6" cy="89.6" r="0.8" opacity="0.60"/><circle cx="859.1" cy="88" r="0.5" opacity="0.34"/><circle cx="640.5" cy="8" r="0.5" opacity="0.32"/><circle cx="308.8" cy="61" r="0.6" opacity="0.80"/><circle cx="849.1" cy="173" r="0.8" opacity="0.74"/></g>
<!-- Orbital ring megastructure seen edge-on, with shadowed underside and station nodes -->
<path d="M-40 176Q480 -46 1000 118" fill="none" stroke="#1b2a44" stroke-width="7" opacity=".55"/>
<path d="M-40 172Q480 -50 1000 114" fill="none" stroke="url(#ringFade)" stroke-width="2.2"/>
<path d="M-40 178Q480 -44 1000 120" fill="none" stroke="url(#ringFade)" stroke-width=".8" opacity=".7"/>
<g fill="#b9d3e2" opacity=".6"><rect x="138" y="97" width="7" height="3" rx="1"/><rect x="401" y="62" width="9" height="3.4" rx="1"/><rect x="610" y="61.5" width="10" height="4" rx="1"/><rect x="820" y="89" width="7" height="3" rx="1"/></g>
<g fill="#ffcf8a" filter="url(#bloom)" opacity=".75"><circle cx="141.5" cy="98.5" r=".7"/><circle cx="405.5" cy="63.7" r=".8"/><circle cx="615" cy="63.5" r=".9"/><circle cx="823.5" cy="90.5" r=".7"/></g>
<rect x="614.55" y="66" width=".9" height="176" fill="url(#tether)"/>
<g fill="#cfe6ef" opacity=".55"><rect x="613.4" y="154" width="3.2" height="2"/><rect x="613.7" y="208" width="2.6" height="1.6"/></g>
<!-- High cirrus and sunset afterglow -->
<rect y="120" width="960" height="210" filter="url(#cirrus)" opacity=".28"/>
<rect width="960" height="420" fill="url(#afterglow)"/>
<rect y="240" width="960" height="130" fill="url(#cityglow)"/>
<!-- Far skyline: hazy -->
<path d="M-6 338V332H-3.9V329.6H-1.7V328.1H0.4V329.6H2.6V332H4.7V338ZM5.4 338V336.6L18.7 331.9V338ZM20.2 338V329.2H21.9V325.5H23.6V323.3H25.3V325.5H27V329.2H28.7V338ZM29.3 338V311.5H48.5V338ZM49 338V331.8H56.2V338ZM56.3 338V330.5H58.4V327.4H60.4V325.6H62.5V327.4H64.6V330.5H66.7V338ZM67 338V322.8H86.7V338ZM87.8 338V312.9Q96.5 303.4 105.2 312.9V338ZM106 338V320.2H108.6V312.7H111.1V308.3H113.7V312.7H116.3V320.2H118.9V338ZM120.1 338V328.3H123V324.3H125.8V321.9H128.6V324.3H131.4V328.3H134.2V338ZM134.5 338V298.8H150.4V338ZM151.5 338V322L158.5 319.6V338ZM159.1 338V334.4H161.9V332.9H164.8V332H167.7V332.9H170.6V334.4H173.5V338ZM173.6 338V332H182.9V338ZM184.1 338V315.1H186.4V305.6H188.7V299.8H191V305.6H193.3V315.1H195.6V338ZM195.7 338V328.8H207.7V338ZM208.5 338V320.6L223.4 315.4V338ZM223.9 338V306.7L232.8 303.6V338ZM233.4 338V318.3H241.4V338ZM242.6 338V309.8H262V338ZM262.3 338V322H265.7V315.4H269V311.4H272.4V315.4H275.7V322H279.1V338ZM279.9 338V306.4H288.7V338ZM289 338V308H308V338ZM308.8 338V336.6Q318.3 326.1 327.9 336.6V338ZM329.2 338V308.5L348.8 301.7V338ZM348.8 338V300.5H362.2V338ZM362.9 338V331.1H374.3V338ZM374.8 338V302.1H390.1V338ZM390.4 338V337.5L407.4 331.5V338ZM408.7 338V327.1H427.6V338ZM427.6 338V306.4H443.2V338ZM444.4 338V335.1L454 331.7V338ZM455 338V322.5H456.6V316H458.3V312.1H460V316H461.6V322.5H463.3V338ZM464.2 338V323H474.8V338ZM475 338V316.6H476.9V307.7H478.9V302.4H480.9V307.7H482.8V316.6H484.8V338ZM485 338V334.9L497.9 330.4V338ZM499.1 338V310.6H509.1V338ZM509.7 338V332H526.5V338ZM527.5 338V326.1H543.8V338ZM544.4 338V332.4H547.1V330.1H549.9V328.7H552.6V330.1H555.4V332.4H558.1V338ZM558.4 338V302.2H569.1V338ZM569.4 338V327.7H576.9V338ZM578.3 338V311.4H592.6V338ZM592.8 338V332.6H596.6V330.3H600.4V329H604.1V330.3H607.9V332.6H611.7V338ZM612.8 338V324H623.8V338ZM625 338V322.5H628.6V316H632.2V312.1H635.8V316H639.5V322.5H643.1V338ZM643.4 338V300.1H650.9V338ZM652.3 338V320.2H660.3V338ZM660.6 338V327.4L667.2 325.1V338ZM668.1 338V321.5L675 319V338ZM675.2 338V324.2H676.7V318.4H678.1V314.9H679.6V318.4H681V324.2H682.5V338ZM682.8 338V323.9L697.9 318.6V338ZM697.9 338V326.7H700.7V321.9H703.4V319.1H706.2V321.9H708.9V326.7H711.7V338ZM711.9 338V328.7L718 326.5V338ZM718.9 338V309.9H735.4V338ZM735.8 338V329.8H738.6V326.4H741.4V324.4H744.2V326.4H747V329.8H749.8V338ZM750.6 338V320.8H752.7V313.7H754.8V309.4H756.9V313.7H759V320.8H761.1V338ZM762.4 338V322.1H769.9V338ZM771.2 338V333.2H773.7V331.2H776.2V330H778.7V331.2H781.2V333.2H783.6V338ZM784.1 338V332.5H786.9V330.2H789.6V328.8H792.4V330.2H795.2V332.5H797.9V338ZM799.4 338V323.1Q808.5 313.1 817.6 323.1V338ZM818 338V318.6H821.2V310.5H824.3V305.7H827.5V310.5H830.6V318.6H833.8V338ZM834.6 338V329.6H849V338ZM850.2 338V298.2H864.4V338ZM865.1 338V316.3L879.9 311.1V338ZM881.2 338V330.2Q890.2 320.4 899.1 330.2V338ZM900.4 338V329.9H911.2V338ZM911.6 338V301.9H928.3V338ZM928.5 338V319.7H931.8V312.1H935.1V307.5H938.4V312.1H941.7V319.7H945V338ZM945.7 338V327.9H947.3V323.7H949V321.1H950.6V323.7H952.2V327.9H953.9V338ZM954.5 338V334.1H957.2V332.5H959.8V331.5H962.5V332.5H965.2V334.1H967.9V338Z" fill="url(#farFill)" opacity=".62" filter="url(#soft)"/>
<rect y="296" width="960" height="44" fill="url(#haze)"/>
<!-- Mid skyline with window grids -->
<path d="M-6 350V340.5H3.4V350ZM4.4 350V321.5H8.9V309.7H13.3V302.6H17.8V309.7H22.3V321.5H26.8V350ZM29.2 350V305.9L46.3 299.9V350ZM48.2 350V310.9H50.9V294.6H53.5V284.8H56.1V294.6H58.8V310.9H61.4V350ZM61.5 350V347.7L77.8 342V350ZM79 350V326H87.8V350ZM88.6 350V331H91V323.1H93.4V318.4H95.8V323.1H98.2V331H100.7V350ZM102 350V312.8H115.1V350ZM116.8 350V340.2H130.3V350ZM133 350V337.1H148.9V350ZM150.1 350V336.5L163.4 331.8V350ZM165.1 350V343.2H166.8V340.3H168.4V338.6H170V340.3H171.6V343.2H173.3V350ZM175 350V330.1Q182.1 322.2 189.2 330.1V350ZM191.5 350V332.8H193.9V325.6H196.2V321.3H198.6V325.6H201V332.8H203.4V350ZM203.8 350V322.8H223.2V350ZM224.9 350V333.9H229.4V327.2H233.8V323.2H238.3V327.2H242.7V333.9H247.1V350ZM247.6 350V347.2L265.9 340.8V350ZM266.3 350V329.6H278.7V350ZM281.5 350V301.3H303.5V350ZM306 350V292.4H329.3V350ZM331.8 350V294.5H340.6V350ZM342.4 350V345.2H344.2V343.2H346V342H347.8V343.2H349.6V345.2H351.4V350ZM353.6 350V290.9H373.8V350ZM375.5 350V319.5Q386.3 307.7 397.1 319.5V350ZM399.6 350V305.2H416V350ZM416.7 350V327.6H433.6V350ZM434.1 350V345H437.5V342.9H440.8V341.7H444.1V342.9H447.4V345H450.7V350ZM451.3 350V325.4L466.8 320V350ZM469.4 350V321H484.6V350ZM486.3 350V304.3Q497 292.5 507.7 304.3V350ZM509 350V321.4H523.8V350ZM526.7 350V334.4H531.3V328H535.8V324.1H540.4V328H545V334.4H549.6V350ZM550.6 350V336.5Q561 325.1 571.3 336.5V350ZM573.5 350V329.4H581.4V350ZM582.8 350V342.6H586V339.5H589.2V337.7H592.4V339.5H595.6V342.6H598.8V350ZM599.8 350V310.1H601.6V293.5H603.4V283.5H605.2V293.5H607V310.1H608.8V350ZM610.5 350V331.9H629.1V350ZM630.8 350V310.9H641V350ZM641.1 350V337.1H656.7V350ZM659.5 350V300.4H679.7V350ZM681.1 350V284.5H694.5V350ZM695.8 350V343.5Q707.1 331.1 718.4 343.5V350ZM720.2 350V326.6H737.6V350ZM739.6 350V329.7L749.5 326.3V350ZM752.4 350V295.7H759.8V350ZM761.8 350V342.9H764.3V339.9H766.9V338.2H769.4V339.9H771.9V342.9H774.4V350ZM776.8 350V341.9H789.7V350ZM791.5 350V310.7L814.9 302.5V350ZM817.7 350V339.3H832.4V350ZM833.4 350V308.3L854.3 301V350ZM857.2 350V345.6L870 341.2V350ZM870.9 350V327Q882.8 313.9 894.7 327V350ZM895 350V336.1H902.3V350ZM903.4 350V287.9H925.4V350ZM927.2 350V340.6H936.2V350ZM938.3 350V287.4L946.3 284.6V350ZM947.9 350V338.3H961.5V350ZM963.7 350V308.5L985.6 300.9V350ZM140 350V252.5L144.7 245V218L149.4 212L153 200L156.6 212L161.3 218V245L166 252.5V350ZM690 350V264.2L694 257.6V233.8L697.9 228.6L701 218L704.1 228.6L708 233.8V257.6L712 264.2V350Z" fill="url(#midFill)"/>
<path d="M22 326.8h1.2v.9h-1.2ZM9 333.2h1.2v.9h-1.2ZM11.6 339.6h1.2v.9h-1.2ZM19.4 339.6h1.2v.9h-1.2ZM33.8 333.7h1.2v.9h-1.2ZM55.4 299.4h1.2v.9h-1.2ZM52.8 302.6h1.2v.9h-1.2ZM52.8 309h1.2v.9h-1.2ZM50.2 344.2h1.2v.9h-1.2ZM98.4 326.6h1.2v.9h-1.2ZM95.8 329.8h1.2v.9h-1.2ZM111.8 317.8h1.2v.9h-1.2ZM109.2 321h1.2v.9h-1.2ZM111.8 324.2h1.2v.9h-1.2ZM111.8 333.8h1.2v.9h-1.2ZM106.6 337h1.2v.9h-1.2ZM157.3 346.4h1.2v.9h-1.2ZM184.8 330.8h1.2v.9h-1.2ZM196.1 332.7h1.2v.9h-1.2ZM201.3 345.5h1.2v.9h-1.2ZM211 334.2h1.2v.9h-1.2ZM211 337.4h1.2v.9h-1.2ZM218.8 340.6h1.2v.9h-1.2ZM229.5 334.6h1.2v.9h-1.2ZM234.7 334.6h1.2v.9h-1.2ZM232.1 337.8h1.2v.9h-1.2ZM229.5 344.2h1.2v.9h-1.2ZM273.5 334.6h1.2v.9h-1.2ZM288.7 315.9h1.2v.9h-1.2ZM288.7 319.1h1.2v.9h-1.2ZM286.1 331.9h1.2v.9h-1.2ZM286.1 338.3h1.2v.9h-1.2ZM291.3 338.3h1.2v.9h-1.2ZM323.6 297.4h1.2v.9h-1.2ZM321 316.6h1.2v.9h-1.2ZM326.2 316.6h1.2v.9h-1.2ZM321 323h1.2v.9h-1.2ZM315.8 342.2h1.2v.9h-1.2ZM336.4 312.3h1.2v.9h-1.2ZM358.2 302.3h1.2v.9h-1.2ZM360.8 308.7h1.2v.9h-1.2ZM371.2 308.7h1.2v.9h-1.2ZM366 311.9h1.2v.9h-1.2ZM371.2 321.5h1.2v.9h-1.2ZM360.8 327.9h1.2v.9h-1.2ZM380.1 318.1h1.2v.9h-1.2ZM377.5 330.9h1.2v.9h-1.2ZM390.5 346.9h1.2v.9h-1.2ZM401.6 335.8h1.2v.9h-1.2ZM401.6 339h1.2v.9h-1.2ZM406.8 339h1.2v.9h-1.2ZM406.8 342.2h1.2v.9h-1.2ZM401.6 345.4h1.2v.9h-1.2ZM421.3 345.4h1.2v.9h-1.2ZM463.7 328.2h1.2v.9h-1.2ZM461.1 344.2h1.2v.9h-1.2ZM471.4 326h1.2v.9h-1.2ZM471.4 342h1.2v.9h-1.2ZM496.1 309.3h1.2v.9h-1.2ZM501.3 309.3h1.2v.9h-1.2ZM490.9 315.7h1.2v.9h-1.2ZM488.3 322.1h1.2v.9h-1.2ZM488.3 328.5h1.2v.9h-1.2ZM490.9 341.3h1.2v.9h-1.2ZM516.2 342.4h1.2v.9h-1.2ZM533.9 338.7h1.2v.9h-1.2ZM555.2 344.9h1.2v.9h-1.2ZM601.8 310.9h1.2v.9h-1.2ZM601.8 314.1h1.2v.9h-1.2ZM615.1 346.5h1.2v.9h-1.2ZM632.8 319.1h1.2v.9h-1.2ZM671.9 311.8h1.2v.9h-1.2ZM661.5 321.4h1.2v.9h-1.2ZM664.1 321.4h1.2v.9h-1.2ZM661.5 331h1.2v.9h-1.2ZM666.7 337.4h1.2v.9h-1.2ZM685.7 302.3h1.2v.9h-1.2ZM690.9 305.5h1.2v.9h-1.2ZM690.9 315.1h1.2v.9h-1.2ZM683.1 321.5h1.2v.9h-1.2ZM683.1 327.9h1.2v.9h-1.2ZM690.9 331.1h1.2v.9h-1.2ZM690.9 337.5h1.2v.9h-1.2ZM724.8 338h1.2v.9h-1.2ZM741.6 340.9h1.2v.9h-1.2ZM757 307.1h1.2v.9h-1.2ZM796.1 313.9h1.2v.9h-1.2ZM809.1 313.9h1.2v.9h-1.2ZM796.1 317.1h1.2v.9h-1.2ZM809.1 317.1h1.2v.9h-1.2ZM798.7 320.3h1.2v.9h-1.2ZM796.1 326.7h1.2v.9h-1.2ZM801.3 326.7h1.2v.9h-1.2ZM809.1 326.7h1.2v.9h-1.2ZM801.3 329.9h1.2v.9h-1.2ZM793.5 345.9h1.2v.9h-1.2ZM809.1 345.9h1.2v.9h-1.2ZM848.4 315.6h1.2v.9h-1.2ZM843.2 318.8h1.2v.9h-1.2ZM838 325.2h1.2v.9h-1.2ZM845.8 325.2h1.2v.9h-1.2ZM835.4 331.6h1.2v.9h-1.2ZM838 331.6h1.2v.9h-1.2ZM838 334.8h1.2v.9h-1.2ZM843.2 344.4h1.2v.9h-1.2ZM913.2 292.9h1.2v.9h-1.2ZM910.6 296.1h1.2v.9h-1.2ZM915.8 302.5h1.2v.9h-1.2ZM908 308.9h1.2v.9h-1.2ZM908 312.1h1.2v.9h-1.2ZM910.6 318.5h1.2v.9h-1.2ZM918.4 328.1h1.2v.9h-1.2ZM942.9 289.6h1.2v.9h-1.2ZM940.3 344h1.2v.9h-1.2ZM965.7 312.3h1.2v.9h-1.2ZM970.9 318.7h1.2v.9h-1.2ZM970.9 321.9h1.2v.9h-1.2ZM981.3 321.9h1.2v.9h-1.2ZM970.9 328.3h1.2v.9h-1.2ZM978.7 331.5h1.2v.9h-1.2ZM973.5 337.9h1.2v.9h-1.2ZM973.5 341.1h1.2v.9h-1.2ZM160.2 205h1.2v.9h-1.2ZM149.8 208.2h1.2v.9h-1.2ZM160.2 208.2h1.2v.9h-1.2ZM149.8 211.4h1.2v.9h-1.2ZM149.8 224.2h1.2v.9h-1.2ZM152.4 224.2h1.2v.9h-1.2ZM160.2 224.2h1.2v.9h-1.2ZM155 227.4h1.2v.9h-1.2ZM157.6 227.4h1.2v.9h-1.2ZM147.2 233.8h1.2v.9h-1.2ZM149.8 233.8h1.2v.9h-1.2ZM152.4 233.8h1.2v.9h-1.2ZM155 233.8h1.2v.9h-1.2ZM160.2 233.8h1.2v.9h-1.2ZM162.8 233.8h1.2v.9h-1.2ZM142 237h1.2v.9h-1.2ZM149.8 237h1.2v.9h-1.2ZM157.6 237h1.2v.9h-1.2ZM162.8 237h1.2v.9h-1.2ZM144.6 246.6h1.2v.9h-1.2ZM149.8 253h1.2v.9h-1.2ZM157.6 253h1.2v.9h-1.2ZM160.2 259.4h1.2v.9h-1.2ZM144.6 265.8h1.2v.9h-1.2ZM160.2 275.4h1.2v.9h-1.2ZM142 281.8h1.2v.9h-1.2ZM144.6 281.8h1.2v.9h-1.2ZM155 281.8h1.2v.9h-1.2ZM162.8 281.8h1.2v.9h-1.2ZM147.2 285h1.2v.9h-1.2ZM147.2 288.2h1.2v.9h-1.2ZM144.6 294.6h1.2v.9h-1.2ZM157.6 294.6h1.2v.9h-1.2ZM162.8 297.8h1.2v.9h-1.2ZM142 301h1.2v.9h-1.2ZM157.6 301h1.2v.9h-1.2ZM144.6 304.2h1.2v.9h-1.2ZM144.6 307.4h1.2v.9h-1.2ZM152.4 307.4h1.2v.9h-1.2ZM152.4 310.6h1.2v.9h-1.2ZM157.6 313.8h1.2v.9h-1.2ZM147.2 320.2h1.2v.9h-1.2ZM157.6 320.2h1.2v.9h-1.2ZM162.8 320.2h1.2v.9h-1.2ZM160.2 323.4h1.2v.9h-1.2ZM152.4 333h1.2v.9h-1.2ZM147.2 336.2h1.2v.9h-1.2ZM157.6 339.4h1.2v.9h-1.2ZM160.2 339.4h1.2v.9h-1.2ZM697.2 223h1.2v.9h-1.2ZM707.6 229.4h1.2v.9h-1.2ZM697.2 232.6h1.2v.9h-1.2ZM699.8 239h1.2v.9h-1.2ZM707.6 239h1.2v.9h-1.2ZM707.6 242.2h1.2v.9h-1.2ZM692 245.4h1.2v.9h-1.2ZM707.6 245.4h1.2v.9h-1.2ZM699.8 248.6h1.2v.9h-1.2ZM707.6 248.6h1.2v.9h-1.2ZM692 255h1.2v.9h-1.2ZM692 264.6h1.2v.9h-1.2ZM707.6 264.6h1.2v.9h-1.2ZM694.6 274.2h1.2v.9h-1.2ZM707.6 274.2h1.2v.9h-1.2ZM705 277.4h1.2v.9h-1.2ZM707.6 277.4h1.2v.9h-1.2ZM694.6 293.4h1.2v.9h-1.2ZM707.6 293.4h1.2v.9h-1.2ZM697.2 299.8h1.2v.9h-1.2ZM707.6 306.2h1.2v.9h-1.2ZM697.2 309.4h1.2v.9h-1.2ZM702.4 312.6h1.2v.9h-1.2ZM692 315.8h1.2v.9h-1.2ZM707.6 315.8h1.2v.9h-1.2ZM692 319h1.2v.9h-1.2ZM699.8 322.2h1.2v.9h-1.2ZM692 325.4h1.2v.9h-1.2ZM699.8 328.6h1.2v.9h-1.2ZM705 328.6h1.2v.9h-1.2Z" fill="#ffc987" opacity=".38"/>
<path d="M14.2 307.6h1.2v.9h-1.2ZM19.4 307.6h1.2v.9h-1.2ZM16.8 323.6h1.2v.9h-1.2ZM9 326.8h1.2v.9h-1.2ZM24.6 326.8h1.2v.9h-1.2ZM22 339.6h1.2v.9h-1.2ZM11.6 342.8h1.2v.9h-1.2ZM31.2 308.1h1.2v.9h-1.2ZM44.2 311.3h1.2v.9h-1.2ZM41.6 324.1h1.2v.9h-1.2ZM39 330.5h1.2v.9h-1.2ZM52.8 325h1.2v.9h-1.2ZM93.2 336.2h1.2v.9h-1.2ZM242.5 328.2h1.2v.9h-1.2ZM273.5 341h1.2v.9h-1.2ZM270.9 344.2h1.2v.9h-1.2ZM313.2 297.4h1.2v.9h-1.2ZM308 300.6h1.2v.9h-1.2ZM321 310.2h1.2v.9h-1.2ZM323.6 313.4h1.2v.9h-1.2ZM308 316.6h1.2v.9h-1.2ZM318.4 326.2h1.2v.9h-1.2ZM326.2 326.2h1.2v.9h-1.2ZM326.2 332.6h1.2v.9h-1.2ZM315.8 335.8h1.2v.9h-1.2ZM318.4 335.8h1.2v.9h-1.2ZM308 342.2h1.2v.9h-1.2ZM313.2 345.4h1.2v.9h-1.2ZM333.8 337.9h1.2v.9h-1.2ZM371.2 302.3h1.2v.9h-1.2ZM371.2 318.3h1.2v.9h-1.2ZM363.4 327.9h1.2v.9h-1.2ZM360.8 331.1h1.2v.9h-1.2ZM366 337.5h1.2v.9h-1.2ZM387.9 318.1h1.2v.9h-1.2ZM401.6 316.6h1.2v.9h-1.2ZM429.1 332.6h1.2v.9h-1.2ZM429.1 339h1.2v.9h-1.2ZM421.3 342.2h1.2v.9h-1.2ZM503.9 318.9h1.2v.9h-1.2ZM496.1 331.7h1.2v.9h-1.2ZM498.7 338.1h1.2v.9h-1.2ZM516.2 345.6h1.2v.9h-1.2ZM531.3 332.3h1.2v.9h-1.2ZM557.8 338.5h1.2v.9h-1.2ZM601.8 346.1h1.2v.9h-1.2ZM617.7 346.5h1.2v.9h-1.2ZM677.1 331h1.2v.9h-1.2ZM677.1 334.2h1.2v.9h-1.2ZM666.7 340.6h1.2v.9h-1.2ZM690.9 299.1h1.2v.9h-1.2ZM732.6 344.4h1.2v.9h-1.2ZM746.8 340.9h1.2v.9h-1.2ZM806.5 320.3h1.2v.9h-1.2ZM806.5 323.5h1.2v.9h-1.2ZM793.5 333.1h1.2v.9h-1.2ZM803.9 342.7h1.2v.9h-1.2ZM843.2 331.6h1.2v.9h-1.2ZM851 331.6h1.2v.9h-1.2ZM851 338h1.2v.9h-1.2ZM888.5 334.5h1.2v.9h-1.2ZM921 302.5h1.2v.9h-1.2ZM905.4 312.1h1.2v.9h-1.2ZM905.4 318.5h1.2v.9h-1.2ZM915.8 318.5h1.2v.9h-1.2ZM910.6 328.1h1.2v.9h-1.2ZM921 331.3h1.2v.9h-1.2ZM910.6 337.7h1.2v.9h-1.2ZM913.2 344.1h1.2v.9h-1.2ZM942.9 315.2h1.2v.9h-1.2ZM965.7 315.5h1.2v.9h-1.2ZM973.5 318.7h1.2v.9h-1.2ZM968.3 337.9h1.2v.9h-1.2ZM981.3 337.9h1.2v.9h-1.2ZM162.8 205h1.2v.9h-1.2ZM157.6 208.2h1.2v.9h-1.2ZM144.6 211.4h1.2v.9h-1.2ZM155 211.4h1.2v.9h-1.2ZM157.6 217.8h1.2v.9h-1.2ZM157.6 221h1.2v.9h-1.2ZM160.2 249.8h1.2v.9h-1.2ZM157.6 259.4h1.2v.9h-1.2ZM149.8 265.8h1.2v.9h-1.2ZM149.8 272.2h1.2v.9h-1.2ZM160.2 272.2h1.2v.9h-1.2ZM162.8 272.2h1.2v.9h-1.2ZM144.6 275.4h1.2v.9h-1.2ZM152.4 278.6h1.2v.9h-1.2ZM152.4 285h1.2v.9h-1.2ZM142 291.4h1.2v.9h-1.2ZM157.6 291.4h1.2v.9h-1.2ZM160.2 297.8h1.2v.9h-1.2ZM144.6 301h1.2v.9h-1.2ZM147.2 304.2h1.2v.9h-1.2ZM162.8 304.2h1.2v.9h-1.2ZM162.8 307.4h1.2v.9h-1.2ZM149.8 313.8h1.2v.9h-1.2ZM142 336.2h1.2v.9h-1.2ZM699.8 226.2h1.2v.9h-1.2ZM697.2 242.2h1.2v.9h-1.2ZM697.2 245.4h1.2v.9h-1.2ZM699.8 267.8h1.2v.9h-1.2ZM699.8 280.6h1.2v.9h-1.2ZM705 280.6h1.2v.9h-1.2ZM707.6 283.8h1.2v.9h-1.2ZM692 293.4h1.2v.9h-1.2ZM692 296.6h1.2v.9h-1.2ZM692 303h1.2v.9h-1.2ZM707.6 303h1.2v.9h-1.2ZM699.8 312.6h1.2v.9h-1.2ZM705 315.8h1.2v.9h-1.2ZM705 319h1.2v.9h-1.2ZM692 322.2h1.2v.9h-1.2ZM707.6 331.8h1.2v.9h-1.2Z" fill="#9fe6ff" opacity=".3"/>
<path d="M0 364V348.5H960V364Z" fill="#141f2d"/>
<path d="M514.6 358.8h1.1v.8h-1.1ZM802.7 354.6h1.1v.8h-1.1ZM218.8 356.7h1.1v.8h-1.1ZM248.6 355.4h1.1v.8h-1.1ZM746.7 351.9h1.1v.8h-1.1ZM327.2 359.9h1.1v.8h-1.1ZM608.3 354.8h1.1v.8h-1.1ZM399.1 357.7h1.1v.8h-1.1ZM678.8 350.6h1.1v.8h-1.1ZM367.8 357.8h1.1v.8h-1.1ZM478.5 360.2h1.1v.8h-1.1ZM163.9 361.6h1.1v.8h-1.1ZM220.8 356.2h1.1v.8h-1.1ZM632.9 357.2h1.1v.8h-1.1ZM679.1 359.2h1.1v.8h-1.1ZM873 356.2h1.1v.8h-1.1ZM828.3 356.1h1.1v.8h-1.1ZM719.3 356.8h1.1v.8h-1.1ZM160.5 360.3h1.1v.8h-1.1ZM66.8 354.3h1.1v.8h-1.1ZM362.9 353.2h1.1v.8h-1.1ZM376.1 352.5h1.1v.8h-1.1ZM323.3 355.1h1.1v.8h-1.1ZM532.6 361h1.1v.8h-1.1ZM705.6 357.4h1.1v.8h-1.1ZM547.2 352.2h1.1v.8h-1.1ZM88.2 359.2h1.1v.8h-1.1ZM957.6 350h1.1v.8h-1.1ZM341.7 350.6h1.1v.8h-1.1ZM401.2 359h1.1v.8h-1.1ZM845.4 361.4h1.1v.8h-1.1ZM773.6 351h1.1v.8h-1.1ZM656.9 358.5h1.1v.8h-1.1ZM889 361.8h1.1v.8h-1.1ZM206.5 353.5h1.1v.8h-1.1ZM31.6 350.1h1.1v.8h-1.1ZM78.9 352.3h1.1v.8h-1.1ZM456.8 359h1.1v.8h-1.1ZM426.6 359.3h1.1v.8h-1.1ZM54.8 352.4h1.1v.8h-1.1ZM14.8 360.4h1.1v.8h-1.1ZM159.9 350.6h1.1v.8h-1.1ZM839.2 361.3h1.1v.8h-1.1ZM79.9 361.9h1.1v.8h-1.1ZM548.7 359.5h1.1v.8h-1.1ZM932.7 350.5h1.1v.8h-1.1ZM171.1 358.2h1.1v.8h-1.1ZM424.9 355.1h1.1v.8h-1.1ZM272.3 361.4h1.1v.8h-1.1ZM679.2 354.6h1.1v.8h-1.1ZM114.2 357.7h1.1v.8h-1.1ZM687.2 353.4h1.1v.8h-1.1ZM245.2 358.1h1.1v.8h-1.1ZM763.6 354.4h1.1v.8h-1.1ZM574.6 357.8h1.1v.8h-1.1ZM636.3 359.3h1.1v.8h-1.1ZM592 358.2h1.1v.8h-1.1ZM826.2 358.5h1.1v.8h-1.1ZM11.3 354h1.1v.8h-1.1ZM926.5 352h1.1v.8h-1.1ZM271.7 359.3h1.1v.8h-1.1ZM124 356.5h1.1v.8h-1.1ZM864.7 361.4h1.1v.8h-1.1ZM756.3 356.2h1.1v.8h-1.1ZM21.3 360h1.1v.8h-1.1ZM609.5 354.6h1.1v.8h-1.1ZM913.2 358.9h1.1v.8h-1.1ZM137.7 360.5h1.1v.8h-1.1ZM808.2 360.4h1.1v.8h-1.1ZM248.3 354.3h1.1v.8h-1.1ZM258.9 351.1h1.1v.8h-1.1ZM70.6 349h1.1v.8h-1.1ZM666 349.6h1.1v.8h-1.1ZM528.5 350.7h1.1v.8h-1.1ZM947 353.9h1.1v.8h-1.1ZM621.3 351.7h1.1v.8h-1.1ZM452.5 359.4h1.1v.8h-1.1ZM377.3 351.2h1.1v.8h-1.1ZM179.9 353.7h1.1v.8h-1.1ZM736.5 359.9h1.1v.8h-1.1ZM325.5 349.8h1.1v.8h-1.1ZM436.4 350.6h1.1v.8h-1.1ZM115.6 359.1h1.1v.8h-1.1ZM753.4 353.3h1.1v.8h-1.1ZM351.9 355.5h1.1v.8h-1.1ZM452.4 350.5h1.1v.8h-1.1ZM722.6 349.9h1.1v.8h-1.1ZM896.6 359.3h1.1v.8h-1.1ZM456.3 359.3h1.1v.8h-1.1ZM318.1 349.2h1.1v.8h-1.1ZM597 355.5h1.1v.8h-1.1ZM554 351.7h1.1v.8h-1.1ZM670.5 349.8h1.1v.8h-1.1ZM936.2 350.1h1.1v.8h-1.1ZM953.9 353.8h1.1v.8h-1.1ZM247.4 351.2h1.1v.8h-1.1ZM723.3 352.8h1.1v.8h-1.1ZM111 352.5h1.1v.8h-1.1ZM337.7 351.3h1.1v.8h-1.1ZM548.9 351.1h1.1v.8h-1.1ZM888.4 359.5h1.1v.8h-1.1ZM716.7 349.4h1.1v.8h-1.1ZM169.9 361.4h1.1v.8h-1.1ZM817.9 354.6h1.1v.8h-1.1ZM257.2 360.5h1.1v.8h-1.1ZM482.8 358.6h1.1v.8h-1.1ZM58.3 356.4h1.1v.8h-1.1ZM632.6 354.6h1.1v.8h-1.1ZM101.3 353.3h1.1v.8h-1.1ZM760 357.1h1.1v.8h-1.1ZM111.3 351.3h1.1v.8h-1.1ZM83.8 358.9h1.1v.8h-1.1ZM827.9 351.7h1.1v.8h-1.1ZM736.7 352.7h1.1v.8h-1.1ZM678.3 357.5h1.1v.8h-1.1ZM846.6 358.9h1.1v.8h-1.1ZM193.6 356.4h1.1v.8h-1.1ZM98.1 359.2h1.1v.8h-1.1ZM472.6 351h1.1v.8h-1.1ZM367.6 356.8h1.1v.8h-1.1ZM437.9 352.5h1.1v.8h-1.1ZM547 352.7h1.1v.8h-1.1ZM742.2 357.8h1.1v.8h-1.1ZM241.3 361.3h1.1v.8h-1.1ZM390.1 360.3h1.1v.8h-1.1ZM439.7 352.3h1.1v.8h-1.1ZM159.8 358.9h1.1v.8h-1.1ZM37.6 352h1.1v.8h-1.1ZM327.5 355.8h1.1v.8h-1.1ZM737.9 352h1.1v.8h-1.1ZM550.4 351.5h1.1v.8h-1.1ZM529.1 354.3h1.1v.8h-1.1ZM429.1 349.6h1.1v.8h-1.1ZM242.6 351.1h1.1v.8h-1.1ZM463.7 359h1.1v.8h-1.1ZM33.6 353.5h1.1v.8h-1.1ZM484.5 360.9h1.1v.8h-1.1ZM229.6 352.6h1.1v.8h-1.1ZM542.6 351.2h1.1v.8h-1.1ZM156.1 358.5h1.1v.8h-1.1ZM862 354.8h1.1v.8h-1.1ZM281.8 356.4h1.1v.8h-1.1ZM568.8 360.1h1.1v.8h-1.1ZM813.8 356.6h1.1v.8h-1.1ZM901.1 361.5h1.1v.8h-1.1ZM649.2 359.3h1.1v.8h-1.1ZM639.4 349.3h1.1v.8h-1.1ZM829.1 352.4h1.1v.8h-1.1ZM478.5 349.3h1.1v.8h-1.1ZM596.1 349.8h1.1v.8h-1.1ZM727.4 357.8h1.1v.8h-1.1ZM259 350.6h1.1v.8h-1.1ZM915.7 359.3h1.1v.8h-1.1ZM402.3 361.6h1.1v.8h-1.1ZM541.5 357.9h1.1v.8h-1.1ZM629.3 357.4h1.1v.8h-1.1ZM438 353.9h1.1v.8h-1.1ZM308.4 352.9h1.1v.8h-1.1ZM642.6 361.4h1.1v.8h-1.1ZM198.8 351.8h1.1v.8h-1.1ZM470.3 352.3h1.1v.8h-1.1ZM242 353.1h1.1v.8h-1.1ZM29.1 357.5h1.1v.8h-1.1ZM539.4 354.1h1.1v.8h-1.1ZM737.1 359.6h1.1v.8h-1.1ZM320.1 356.3h1.1v.8h-1.1ZM725.7 355.5h1.1v.8h-1.1ZM484 359.1h1.1v.8h-1.1ZM409.4 360.8h1.1v.8h-1.1ZM215.1 352.6h1.1v.8h-1.1ZM219.3 350.2h1.1v.8h-1.1ZM431.3 354.7h1.1v.8h-1.1ZM508.9 354.9h1.1v.8h-1.1ZM257.2 353.3h1.1v.8h-1.1ZM479.3 353.2h1.1v.8h-1.1ZM723.5 360.9h1.1v.8h-1.1ZM863.9 351h1.1v.8h-1.1ZM440.4 359h1.1v.8h-1.1ZM33.5 360.1h1.1v.8h-1.1ZM802.9 358.5h1.1v.8h-1.1ZM238.3 352h1.1v.8h-1.1ZM207.4 360.1h1.1v.8h-1.1ZM713.4 357.4h1.1v.8h-1.1ZM104 355.9h1.1v.8h-1.1ZM592.2 352.3h1.1v.8h-1.1ZM928.9 358.7h1.1v.8h-1.1ZM328.8 356.2h1.1v.8h-1.1ZM682.4 358.8h1.1v.8h-1.1ZM145.4 349.1h1.1v.8h-1.1ZM539.5 357.9h1.1v.8h-1.1ZM12 362h1.1v.8h-1.1ZM84.5 360.1h1.1v.8h-1.1ZM153.4 354.6h1.1v.8h-1.1ZM446.8 359h1.1v.8h-1.1ZM365.1 357.5h1.1v.8h-1.1ZM322.6 350.5h1.1v.8h-1.1ZM485.1 356.9h1.1v.8h-1.1ZM766.6 352.5h1.1v.8h-1.1ZM781 352.5h1.1v.8h-1.1ZM385.2 349.2h1.1v.8h-1.1ZM291.3 360.3h1.1v.8h-1.1ZM167.1 356.3h1.1v.8h-1.1ZM21 355.4h1.1v.8h-1.1ZM63.3 350.5h1.1v.8h-1.1ZM888 360.5h1.1v.8h-1.1ZM324.1 355.6h1.1v.8h-1.1ZM925.2 359.1h1.1v.8h-1.1ZM723.2 356.8h1.1v.8h-1.1ZM317.1 360.2h1.1v.8h-1.1ZM616.5 356.4h1.1v.8h-1.1ZM92.7 353.7h1.1v.8h-1.1ZM151.6 352.7h1.1v.8h-1.1ZM660.3 359.4h1.1v.8h-1.1ZM306 352.9h1.1v.8h-1.1ZM854.2 353h1.1v.8h-1.1ZM633.2 352.1h1.1v.8h-1.1ZM325.1 359.3h1.1v.8h-1.1ZM537.6 356.1h1.1v.8h-1.1ZM677.6 356.5h1.1v.8h-1.1ZM562.5 361.5h1.1v.8h-1.1ZM40.9 354.8h1.1v.8h-1.1ZM411.6 350.5h1.1v.8h-1.1ZM907 351.8h1.1v.8h-1.1ZM245.9 350.5h1.1v.8h-1.1ZM534.1 352.3h1.1v.8h-1.1ZM541.2 350h1.1v.8h-1.1ZM515.4 356h1.1v.8h-1.1ZM819 360h1.1v.8h-1.1ZM500.8 351.1h1.1v.8h-1.1ZM681.4 356.3h1.1v.8h-1.1ZM694.2 354.9h1.1v.8h-1.1ZM108.5 356.8h1.1v.8h-1.1ZM628.6 350h1.1v.8h-1.1ZM52.8 351.2h1.1v.8h-1.1ZM162.1 359h1.1v.8h-1.1ZM770.7 356.7h1.1v.8h-1.1ZM252.5 356.2h1.1v.8h-1.1ZM359.9 361.2h1.1v.8h-1.1ZM354.6 357.4h1.1v.8h-1.1ZM46.5 358.8h1.1v.8h-1.1ZM58.5 354.5h1.1v.8h-1.1ZM7.2 359.7h1.1v.8h-1.1ZM372.7 349.2h1.1v.8h-1.1ZM414 353.1h1.1v.8h-1.1ZM297.2 356.5h1.1v.8h-1.1ZM590 359.5h1.1v.8h-1.1ZM855.3 351.1h1.1v.8h-1.1ZM900.8 360.8h1.1v.8h-1.1ZM253.9 359.4h1.1v.8h-1.1ZM752.1 356.1h1.1v.8h-1.1ZM484.9 352.7h1.1v.8h-1.1ZM670.7 351.8h1.1v.8h-1.1ZM892.6 356.8h1.1v.8h-1.1ZM400.9 356.3h1.1v.8h-1.1ZM458.5 351.1h1.1v.8h-1.1ZM515.5 352.1h1.1v.8h-1.1ZM135.1 351.4h1.1v.8h-1.1ZM911.4 361.8h1.1v.8h-1.1ZM634.4 360.7h1.1v.8h-1.1ZM334.1 350.2h1.1v.8h-1.1Z" fill="#ffc987" opacity=".3"/>
<rect y="318" width="960" height="34" fill="url(#haze)" opacity=".7"/>
<!-- Near skyline, supertall arcologies, light seams and aviation beacons -->
<path d="M-6 364V341H22.9V364ZM23.8 364V353.9H50.4V364ZM50.7 364V356.9H54.1V353.9H57.5V352.1H60.9V353.9H64.3V356.9H67.8V364ZM69.1 364V353.3H97.3V364ZM100.6 364V335.1H123.2V364ZM126.5 364V352.3H147.4V364ZM147.5 364V332.1L172.6 323.3V364ZM173.4 364V329.8H195.5V364ZM195.8 364V337.8H212.7V364ZM213.1 364V358.1H242.1V364ZM245.5 364V340.5H255.7V364ZM257.7 364V349.6H263.6V343.6H269.4V340H275.3V343.6H281.1V349.6H287V364ZM288.3 364V355.9H292.1V352.6H295.9V350.5H299.7V352.6H303.5V355.9H307.3V364ZM308.4 364V354.9H337V364ZM338.2 364V320.2H354.8V364ZM357.1 364V347.5H367.6V364ZM368.1 364V363.9L382.7 358.9V364ZM384.2 364V346.1H388.1V338.6H392.1V334.1H396V338.6H399.9V346.1H403.9V364ZM406.1 364V359.1H408.6V357.1H411V355.9H413.5V357.1H416V359.1H418.5V364ZM418.8 364V360.1H420.7V358.4H422.5V357.5H424.4V358.4H426.3V360.1H428.2V364ZM430.2 364V340.8H457V364ZM457.7 364V349.1H478.5V364ZM479.2 364V345.8H491.3V364ZM495.2 364V358.5H518.4V364ZM521.9 364V343.8H550.9V364ZM552.1 364V347.9H574.7V364ZM575.7 364V330.6H585.3V364ZM587.6 364V327.2H607.1V364ZM608.1 364V365.1L632 356.7V364ZM633.5 364V368.2L659.7 359V364ZM661.5 364V359L677.2 353.5V364ZM680.1 364V340.3H683.4V330.5H686.7V324.5H690V330.5H693.2V340.3H696.5V364ZM697.4 364V353.1H716.6V364ZM720.1 364V333.6H738.7V364ZM738.8 364V328.1H751.9V364ZM754.7 364V332.8Q762.4 324.2 770.2 332.8V364ZM774.1 364V326.8H797.8V364ZM799.8 364V345.8H809.3V364ZM809.4 364V330.6H823.8V364ZM825.6 364V362L844.4 355.4V364ZM846.7 364V347.6H868.6V364ZM872.1 364V349.5L901.4 339.2V364ZM901.7 364V351.2H918.9V364ZM920.8 364V322.2H946.3V364ZM948.9 364V345.3H951.4V337.4H954V332.8H956.5V337.4H959.1V345.3H961.6V364ZM965.3 364V335Q974.4 324.9 983.6 335V364ZM262 364V234L268.1 224V188L274.2 180L279 164L283.8 180L289.9 188V224L296 234V364ZM598 364V249.6L603.4 240.8V209.1L608.8 202.1L613 188L617.2 202.1L622.6 209.1V240.8L628 249.6V364ZM840 364V266.5L845 259V232L850.1 226L854 214L857.9 226L863 232V259L868 266.5V364ZM452 364V301.6L455.6 296.8V279.5L459.2 275.7L462 268L464.8 275.7L468.4 279.5V296.8L472 301.6V364Z" fill="url(#nearFill)" stroke="#2c455a" stroke-width=".6" stroke-opacity=".55"/>
<path d="M16.8 349.2h1.3v.9h-1.3ZM113 346.5h1.3v.9h-1.3ZM115.6 356.1h1.3v.9h-1.3ZM120.8 359.3h1.3v.9h-1.3ZM149.5 334.7h1.3v.9h-1.3ZM152.1 360.3h1.3v.9h-1.3ZM178 338h1.3v.9h-1.3ZM188.4 344.4h1.3v.9h-1.3ZM185.8 350.8h1.3v.9h-1.3ZM178 357.2h1.3v.9h-1.3ZM180.6 357.2h1.3v.9h-1.3ZM252.7 348.7h1.3v.9h-1.3ZM275.3 348.2h1.3v.9h-1.3ZM267.5 357.8h1.3v.9h-1.3ZM270.1 357.8h1.3v.9h-1.3ZM280.5 361h1.3v.9h-1.3ZM348 328.4h1.3v.9h-1.3ZM340.2 334.8h1.3v.9h-1.3ZM342.8 344.4h1.3v.9h-1.3ZM342.8 350.8h1.3v.9h-1.3ZM345.4 350.8h1.3v.9h-1.3ZM340.2 354h1.3v.9h-1.3ZM340.2 360.4h1.3v.9h-1.3ZM394 351.9h1.3v.9h-1.3ZM467.5 354.1h1.3v.9h-1.3ZM470.1 357.3h1.3v.9h-1.3ZM534.3 352h1.3v.9h-1.3ZM556.7 359.3h1.3v.9h-1.3ZM561.9 359.3h1.3v.9h-1.3ZM597.4 332.2h1.3v.9h-1.3ZM602.6 345h1.3v.9h-1.3ZM592.2 351.4h1.3v.9h-1.3ZM597.4 354.6h1.3v.9h-1.3ZM682.1 345.5h1.3v.9h-1.3ZM684.7 355.1h1.3v.9h-1.3ZM689.9 358.3h1.3v.9h-1.3ZM729.9 341.8h1.3v.9h-1.3ZM732.5 348.2h1.3v.9h-1.3ZM746 352.3h1.3v.9h-1.3ZM767.1 336.3h1.3v.9h-1.3ZM756.7 339.5h1.3v.9h-1.3ZM756.7 358.7h1.3v.9h-1.3ZM786.5 335h1.3v.9h-1.3ZM789.1 338.2h1.3v.9h-1.3ZM776.1 344.6h1.3v.9h-1.3ZM786.5 357.4h1.3v.9h-1.3ZM811.4 338.8h1.3v.9h-1.3ZM811.4 342h1.3v.9h-1.3ZM814 354.8h1.3v.9h-1.3ZM819.2 358h1.3v.9h-1.3ZM851.3 359h1.3v.9h-1.3ZM876.7 350.6h1.3v.9h-1.3ZM914.1 359.4h1.3v.9h-1.3ZM941 356h1.3v.9h-1.3ZM943.6 356h1.3v.9h-1.3ZM925.4 359.2h1.3v.9h-1.3ZM958.7 341h1.3v.9h-1.3ZM953.5 357h1.3v.9h-1.3ZM980.3 337.7h1.3v.9h-1.3ZM975.1 356.9h1.3v.9h-1.3ZM287.4 175.4h1.3v.9h-1.3ZM266.6 185h1.3v.9h-1.3ZM282.2 185h1.3v.9h-1.3ZM292.6 185h1.3v.9h-1.3ZM264 194.6h1.3v.9h-1.3ZM277 194.6h1.3v.9h-1.3ZM282.2 194.6h1.3v.9h-1.3ZM284.8 194.6h1.3v.9h-1.3ZM290 197.8h1.3v.9h-1.3ZM290 201h1.3v.9h-1.3ZM264 207.4h1.3v.9h-1.3ZM264 210.6h1.3v.9h-1.3ZM292.6 213.8h1.3v.9h-1.3ZM266.6 223.4h1.3v.9h-1.3ZM271.8 223.4h1.3v.9h-1.3ZM290 226.6h1.3v.9h-1.3ZM284.8 229.8h1.3v.9h-1.3ZM264 233h1.3v.9h-1.3ZM292.6 233h1.3v.9h-1.3ZM284.8 245.8h1.3v.9h-1.3ZM292.6 249h1.3v.9h-1.3ZM264 252.2h1.3v.9h-1.3ZM264 255.4h1.3v.9h-1.3ZM277 271.4h1.3v.9h-1.3ZM292.6 271.4h1.3v.9h-1.3ZM264 281h1.3v.9h-1.3ZM269.2 281h1.3v.9h-1.3ZM271.8 284.2h1.3v.9h-1.3ZM290 287.4h1.3v.9h-1.3ZM264 297h1.3v.9h-1.3ZM277 297h1.3v.9h-1.3ZM290 297h1.3v.9h-1.3ZM271.8 319.4h1.3v.9h-1.3ZM292.6 319.4h1.3v.9h-1.3ZM282.2 335.4h1.3v.9h-1.3ZM274.4 341.8h1.3v.9h-1.3ZM292.6 341.8h1.3v.9h-1.3ZM282.2 345h1.3v.9h-1.3ZM292.6 348.2h1.3v.9h-1.3ZM266.6 351.4h1.3v.9h-1.3ZM269.2 351.4h1.3v.9h-1.3ZM277 351.4h1.3v.9h-1.3ZM287.4 351.4h1.3v.9h-1.3ZM282.2 354.6h1.3v.9h-1.3ZM287.4 354.6h1.3v.9h-1.3ZM277 357.8h1.3v.9h-1.3ZM282.2 357.8h1.3v.9h-1.3ZM602.6 215.4h1.3v.9h-1.3ZM615.6 221.8h1.3v.9h-1.3ZM607.8 225h1.3v.9h-1.3ZM615.6 231.4h1.3v.9h-1.3ZM605.2 234.6h1.3v.9h-1.3ZM620.8 244.2h1.3v.9h-1.3ZM610.4 247.4h1.3v.9h-1.3ZM602.6 250.6h1.3v.9h-1.3ZM623.4 260.2h1.3v.9h-1.3ZM602.6 263.4h1.3v.9h-1.3ZM618.2 263.4h1.3v.9h-1.3ZM618.2 276.2h1.3v.9h-1.3ZM613 282.6h1.3v.9h-1.3ZM618.2 282.6h1.3v.9h-1.3ZM618.2 285.8h1.3v.9h-1.3ZM615.6 289h1.3v.9h-1.3ZM623.4 305h1.3v.9h-1.3ZM623.4 311.4h1.3v.9h-1.3ZM602.6 314.6h1.3v.9h-1.3ZM613 314.6h1.3v.9h-1.3ZM620.8 314.6h1.3v.9h-1.3ZM600 321h1.3v.9h-1.3ZM618.2 324.2h1.3v.9h-1.3ZM600 340.2h1.3v.9h-1.3ZM605.2 353h1.3v.9h-1.3ZM600 356.2h1.3v.9h-1.3ZM613 356.2h1.3v.9h-1.3ZM602.6 359.4h1.3v.9h-1.3ZM847.2 219h1.3v.9h-1.3ZM860.2 228.6h1.3v.9h-1.3ZM844.6 241.4h1.3v.9h-1.3ZM857.6 241.4h1.3v.9h-1.3ZM860.2 241.4h1.3v.9h-1.3ZM847.2 244.6h1.3v.9h-1.3ZM842 254.2h1.3v.9h-1.3ZM855 254.2h1.3v.9h-1.3ZM855 260.6h1.3v.9h-1.3ZM849.8 267h1.3v.9h-1.3ZM865.4 267h1.3v.9h-1.3ZM852.4 270.2h1.3v.9h-1.3ZM844.6 279.8h1.3v.9h-1.3ZM862.8 286.2h1.3v.9h-1.3ZM849.8 289.4h1.3v.9h-1.3ZM860.2 292.6h1.3v.9h-1.3ZM857.6 295.8h1.3v.9h-1.3ZM852.4 305.4h1.3v.9h-1.3ZM844.6 308.6h1.3v.9h-1.3ZM849.8 308.6h1.3v.9h-1.3ZM857.6 308.6h1.3v.9h-1.3ZM842 311.8h1.3v.9h-1.3ZM855 311.8h1.3v.9h-1.3ZM849.8 321.4h1.3v.9h-1.3ZM862.8 324.6h1.3v.9h-1.3ZM860.2 331h1.3v.9h-1.3ZM847.2 334.2h1.3v.9h-1.3ZM849.8 334.2h1.3v.9h-1.3ZM847.2 337.4h1.3v.9h-1.3ZM842 340.6h1.3v.9h-1.3ZM862.8 343.8h1.3v.9h-1.3ZM865.4 343.8h1.3v.9h-1.3ZM844.6 347h1.3v.9h-1.3ZM849.8 359.8h1.3v.9h-1.3ZM454 282.6h1.3v.9h-1.3ZM456.6 292.2h1.3v.9h-1.3ZM459.2 295.4h1.3v.9h-1.3ZM464.4 295.4h1.3v.9h-1.3ZM464.4 298.6h1.3v.9h-1.3ZM454 314.6h1.3v.9h-1.3ZM464.4 314.6h1.3v.9h-1.3ZM459.2 330.6h1.3v.9h-1.3ZM464.4 330.6h1.3v.9h-1.3ZM461.8 333.8h1.3v.9h-1.3ZM459.2 340.2h1.3v.9h-1.3ZM467 340.2h1.3v.9h-1.3ZM461.8 343.4h1.3v.9h-1.3ZM469.6 349.8h1.3v.9h-1.3ZM454 359.4h1.3v.9h-1.3Z" fill="#ffc987" opacity=".42"/>
<path d="M9 349.2h1.3v.9h-1.3ZM-4 355.6h1.3v.9h-1.3ZM152.1 337.9h1.3v.9h-1.3ZM175.4 344.4h1.3v.9h-1.3ZM185.8 344.4h1.3v.9h-1.3ZM247.5 345.5h1.3v.9h-1.3ZM280.5 348.2h1.3v.9h-1.3ZM262.3 351.4h1.3v.9h-1.3ZM345.4 344.4h1.3v.9h-1.3ZM350.6 360.4h1.3v.9h-1.3ZM399.2 339.1h1.3v.9h-1.3ZM386.2 342.3h1.3v.9h-1.3ZM386.2 358.3h1.3v.9h-1.3ZM432.2 358.6h1.3v.9h-1.3ZM470.1 354.1h1.3v.9h-1.3ZM534.3 355.2h1.3v.9h-1.3ZM531.7 358.4h1.3v.9h-1.3ZM569.7 359.3h1.3v.9h-1.3ZM589.6 332.2h1.3v.9h-1.3ZM589.6 335.4h1.3v.9h-1.3ZM692.5 342.3h1.3v.9h-1.3ZM743.4 333.1h1.3v.9h-1.3ZM748.6 333.1h1.3v.9h-1.3ZM740.8 342.7h1.3v.9h-1.3ZM761.9 333.1h1.3v.9h-1.3ZM767.1 342.7h1.3v.9h-1.3ZM776.1 331.8h1.3v.9h-1.3ZM783.9 331.8h1.3v.9h-1.3ZM786.5 338.2h1.3v.9h-1.3ZM801.8 357.2h1.3v.9h-1.3ZM811.4 348.4h1.3v.9h-1.3ZM851.3 355.8h1.3v.9h-1.3ZM897.5 347.4h1.3v.9h-1.3ZM887.1 357h1.3v.9h-1.3ZM911.5 356.2h1.3v.9h-1.3ZM938.4 343.2h1.3v.9h-1.3ZM930.6 359.2h1.3v.9h-1.3ZM969.9 344.1h1.3v.9h-1.3ZM972.5 350.5h1.3v.9h-1.3ZM977.7 350.5h1.3v.9h-1.3ZM969.9 356.9h1.3v.9h-1.3ZM975.1 360.1h1.3v.9h-1.3ZM269.2 169h1.3v.9h-1.3ZM277 169h1.3v.9h-1.3ZM282.2 172.2h1.3v.9h-1.3ZM287.4 172.2h1.3v.9h-1.3ZM279.6 178.6h1.3v.9h-1.3ZM266.6 181.8h1.3v.9h-1.3ZM279.6 181.8h1.3v.9h-1.3ZM274.4 185h1.3v.9h-1.3ZM279.6 188.2h1.3v.9h-1.3ZM290 188.2h1.3v.9h-1.3ZM287.4 191.4h1.3v.9h-1.3ZM271.8 201h1.3v.9h-1.3ZM271.8 207.4h1.3v.9h-1.3ZM274.4 207.4h1.3v.9h-1.3ZM287.4 213.8h1.3v.9h-1.3ZM271.8 236.2h1.3v.9h-1.3ZM277 236.2h1.3v.9h-1.3ZM284.8 236.2h1.3v.9h-1.3ZM271.8 239.4h1.3v.9h-1.3ZM292.6 242.6h1.3v.9h-1.3ZM290 245.8h1.3v.9h-1.3ZM274.4 249h1.3v.9h-1.3ZM290 249h1.3v.9h-1.3ZM271.8 261.8h1.3v.9h-1.3ZM284.8 261.8h1.3v.9h-1.3ZM269.2 268.2h1.3v.9h-1.3ZM287.4 268.2h1.3v.9h-1.3ZM287.4 271.4h1.3v.9h-1.3ZM287.4 274.6h1.3v.9h-1.3ZM266.6 281h1.3v.9h-1.3ZM274.4 287.4h1.3v.9h-1.3ZM287.4 290.6h1.3v.9h-1.3ZM266.6 303.4h1.3v.9h-1.3ZM274.4 322.6h1.3v.9h-1.3ZM284.8 322.6h1.3v.9h-1.3ZM274.4 335.4h1.3v.9h-1.3ZM266.6 341.8h1.3v.9h-1.3ZM290 345h1.3v.9h-1.3ZM279.6 354.6h1.3v.9h-1.3ZM290 357.8h1.3v.9h-1.3ZM266.6 361h1.3v.9h-1.3ZM274.4 361h1.3v.9h-1.3ZM605.2 196.2h1.3v.9h-1.3ZM613 212.2h1.3v.9h-1.3ZM600 218.6h1.3v.9h-1.3ZM610.4 228.2h1.3v.9h-1.3ZM620.8 234.6h1.3v.9h-1.3ZM602.6 244.2h1.3v.9h-1.3ZM615.6 244.2h1.3v.9h-1.3ZM615.6 250.6h1.3v.9h-1.3ZM610.4 253.8h1.3v.9h-1.3ZM610.4 257h1.3v.9h-1.3ZM600 263.4h1.3v.9h-1.3ZM607.8 266.6h1.3v.9h-1.3ZM607.8 269.8h1.3v.9h-1.3ZM610.4 269.8h1.3v.9h-1.3ZM618.2 273h1.3v.9h-1.3ZM615.6 276.2h1.3v.9h-1.3ZM607.8 285.8h1.3v.9h-1.3ZM613 292.2h1.3v.9h-1.3ZM618.2 292.2h1.3v.9h-1.3ZM600 295.4h1.3v.9h-1.3ZM610.4 295.4h1.3v.9h-1.3ZM600 301.8h1.3v.9h-1.3ZM605.2 301.8h1.3v.9h-1.3ZM605.2 314.6h1.3v.9h-1.3ZM613 340.2h1.3v.9h-1.3ZM607.8 356.2h1.3v.9h-1.3ZM620.8 356.2h1.3v.9h-1.3ZM618.2 359.4h1.3v.9h-1.3ZM844.6 222.2h1.3v.9h-1.3ZM865.4 231.8h1.3v.9h-1.3ZM860.2 235h1.3v.9h-1.3ZM852.4 244.6h1.3v.9h-1.3ZM862.8 251h1.3v.9h-1.3ZM842 257.4h1.3v.9h-1.3ZM852.4 273.4h1.3v.9h-1.3ZM862.8 276.6h1.3v.9h-1.3ZM855 289.4h1.3v.9h-1.3ZM852.4 295.8h1.3v.9h-1.3ZM852.4 299h1.3v.9h-1.3ZM849.8 311.8h1.3v.9h-1.3ZM844.6 327.8h1.3v.9h-1.3ZM860.2 337.4h1.3v.9h-1.3ZM844.6 340.6h1.3v.9h-1.3ZM849.8 350.2h1.3v.9h-1.3ZM852.4 350.2h1.3v.9h-1.3ZM464.4 273h1.3v.9h-1.3ZM467 273h1.3v.9h-1.3ZM461.8 276.2h1.3v.9h-1.3ZM454 285.8h1.3v.9h-1.3ZM469.6 295.4h1.3v.9h-1.3ZM459.2 305h1.3v.9h-1.3ZM461.8 321h1.3v.9h-1.3ZM454 324.2h1.3v.9h-1.3ZM467 327.4h1.3v.9h-1.3ZM454 330.6h1.3v.9h-1.3ZM469.6 359.4h1.3v.9h-1.3Z" fill="#9fe6ff" opacity=".34"/>
<path d="M149.4 350V221M156.6 350V221M697.9 350V236.5M704.1 350V236.5M274.2 364V192M283.8 364V192M608.8 364V212.6M617.2 364V212.6M850.1 364V235M857.9 364V235M459.2 364V281.4M464.8 364V281.4" stroke="#8fdcf0" stroke-width=".5" opacity=".35"/>
<path d="M153 200V190M701 218V208M279 164V154M613 188V178M854 214V204M462 268V258" stroke="#39485a" stroke-width=".8"/>
<g fill="#ff4b3a" filter="url(#bloom)"><circle cx="54.8" cy="282.8" r="0.9"/><circle cx="363.7" cy="288.9" r="0.9"/><circle cx="604.3" cy="281.5" r="0.9"/><circle cx="687.8" cy="282.5" r="0.9"/><circle cx="914.4" cy="285.9" r="0.9"/><circle cx="942.3" cy="282.6" r="0.9"/><circle cx="153" cy="190" r="1.3"/><circle cx="701" cy="208" r="1.3"/><circle cx="279" cy="154" r="1.3"/><circle cx="613" cy="178" r="1.3"/><circle cx="854" cy="204" r="1.3"/><circle cx="462" cy="258" r="1.3"/></g>
<!-- Bay: dark water with city reflections -->
<rect y="364" width="960" height="176" fill="url(#sea)"/>
<path d="M360 364.5A300 52 0 0 0 960 364.5Z" fill="url(#seaPool)"/>
<rect y="364" width="960" height="176" filter="url(#ripple)" opacity=".16"/>
<path d="M838.6 384.5h0.6v.7h-0.6ZM807.8 368h2.1v.7h-2.1ZM366.2 440.1h0.6v.7h-0.6ZM65.2 428.5h1.2v.7h-1.2ZM398.1 381.4h0.9v.7h-0.9ZM848.8 370.8h1.7v.7h-1.7ZM393.1 376.5h1.5v.7h-1.5ZM90.9 380.3h0.8v.7h-0.8ZM502.1 367.1h2.1v.7h-2.1ZM270 394.9h1.6v.7h-1.6ZM579.6 370.1h0.9v.7h-0.9ZM394.6 368.7h1.8v.7h-1.8ZM471.7 371.4h0.9v.7h-0.9ZM611.8 450.4h1.6v.7h-1.6ZM875.4 423.8h1.5v.7h-1.5ZM360.7 451.4h1.6v.7h-1.6ZM45.8 367.2h2.1v.7h-2.1ZM503.2 386.8h0.6v.7h-0.6ZM617.6 402.6h1.9v.7h-1.9ZM672.6 392h1.1v.7h-1.1ZM918.3 375.5h0.9v.7h-0.9ZM269.3 454.2h1v.7h-1ZM695.4 431.1h0.7v.7h-0.7ZM926.3 449h0.9v.7h-0.9ZM976.1 367.2h0.9v.7h-0.9ZM260.5 372.8h1.1v.7h-1.1ZM602.7 398.6h1.5v.7h-1.5ZM398.5 421.5h1.3v.7h-1.3ZM407.8 443.9h0.7v.7h-0.7ZM425 417.5h1.2v.7h-1.2ZM803 428.5h1.2v.7h-1.2ZM560.4 411.7h1.3v.7h-1.3ZM78.4 390h0.7v.7h-0.7ZM950.4 400.2h2.2v.7h-2.2ZM74.5 451.4h2.1v.7h-2.1ZM481.9 379.5h0.7v.7h-0.7ZM741.4 393.1h1v.7h-1ZM782.2 380.8h1.7v.7h-1.7ZM510.7 396.2h1.4v.7h-1.4ZM685.2 382.5h1.2v.7h-1.2ZM927.3 411.7h1.1v.7h-1.1ZM516 445.3h1.3v.7h-1.3ZM874.5 374.4h1.3v.7h-1.3ZM123.2 401.8h2.2v.7h-2.2ZM282.4 443.3h0.8v.7h-0.8ZM89.1 392.2h2.2v.7h-2.2ZM829.8 397.5h0.9v.7h-0.9ZM490.7 409.9h1.4v.7h-1.4ZM274.6 403.6h0.8v.7h-0.8ZM564.6 440.6h1.7v.7h-1.7ZM618.5 389.2h0.9v.7h-0.9ZM864.6 425.9h1.9v.7h-1.9ZM709.7 369h1.5v.7h-1.5ZM626.1 375.5h2v.7h-2ZM970.6 382.3h1.3v.7h-1.3ZM810.8 398.6h1.4v.7h-1.4ZM553.1 432h1.4v.7h-1.4ZM802.3 409.8h1.7v.7h-1.7ZM574 420.9h1.6v.7h-1.6ZM793.4 423h0.8v.7h-0.8ZM419.2 374.7h2.1v.7h-2.1ZM171.3 373.1h0.6v.7h-0.6ZM311.7 413.8h1.1v.7h-1.1ZM204.3 405.4h2v.7h-2ZM480.2 374.4h1.4v.7h-1.4ZM184.4 372.7h1.8v.7h-1.8ZM413 417h2.1v.7h-2.1ZM832 408.2h1.4v.7h-1.4ZM805.3 435.6h0.7v.7h-0.7ZM805.8 431.8h1.9v.7h-1.9ZM615.3 438.3h1.1v.7h-1.1ZM659.4 454.2h0.9v.7h-0.9ZM745.9 407.4h1.5v.7h-1.5ZM902.5 384.3h1.1v.7h-1.1ZM661.8 367.4h0.7v.7h-0.7ZM176.7 429.5h0.7v.7h-0.7ZM206.6 380.9h1.3v.7h-1.3ZM346.3 369.4h0.9v.7h-0.9ZM579.5 367.5h1v.7h-1ZM929.2 367.5h1.9v.7h-1.9ZM156.3 383.5h0.6v.7h-0.6ZM373.2 372.4h1.6v.7h-1.6ZM363.6 399.1h1.4v.7h-1.4ZM491.2 390.4h1.5v.7h-1.5ZM616.4 438.8h2.1v.7h-2.1ZM640.3 432.1h1v.7h-1ZM462 411.2h0.7v.7h-0.7ZM310.4 413.9h0.9v.7h-0.9ZM851.2 392.1h1.6v.7h-1.6ZM577.1 398.6h1.6v.7h-1.6ZM849.2 438.7h2.1v.7h-2.1ZM868.2 369h1.5v.7h-1.5ZM838.8 380h0.9v.7h-0.9ZM164.6 404.4h1.9v.7h-1.9ZM690.9 448.8h0.8v.7h-0.8ZM806 394.6h0.9v.7h-0.9ZM443.2 425.8h1.7v.7h-1.7ZM931.7 397h0.9v.7h-0.9ZM864.3 384.9h1.1v.7h-1.1ZM161.9 392.3h1.4v.7h-1.4Z" fill="#ffc987" opacity=".26"/>
<path d="M202 392.5h1.2v.7h-1.2ZM759.2 434.7h1.6v.7h-1.6ZM950.1 369.3h1.8v.7h-1.8ZM49.7 409.7h1v.7h-1ZM465.1 415h0.6v.7h-0.6ZM881.5 378.3h1.8v.7h-1.8ZM114.5 368h1.6v.7h-1.6ZM601 367h1.1v.7h-1.1ZM60.2 380.5h0.7v.7h-0.7ZM589.6 448h1.4v.7h-1.4ZM958.6 438.6h0.7v.7h-0.7ZM541.5 370.8h1.8v.7h-1.8ZM182.6 396.5h1.2v.7h-1.2ZM616.7 374.3h1.8v.7h-1.8ZM644.5 377h2.2v.7h-2.2ZM111.1 391.7h1.1v.7h-1.1ZM3.3 382.4h1.5v.7h-1.5ZM744.5 441.1h1.3v.7h-1.3ZM877.9 367h1.5v.7h-1.5ZM636.8 393.9h1v.7h-1ZM769.2 413.9h1.5v.7h-1.5ZM488 454.5h1.5v.7h-1.5ZM854 398.3h1.5v.7h-1.5ZM64.2 380.7h1.3v.7h-1.3ZM320.6 400.4h1.7v.7h-1.7ZM922.4 396.1h0.8v.7h-0.8ZM939.7 389.1h0.9v.7h-0.9ZM517.8 410.7h2.1v.7h-2.1ZM36.2 384.6h1.7v.7h-1.7ZM603.3 374h2.2v.7h-2.2ZM809 380.3h1v.7h-1ZM517.8 373.6h0.9v.7h-0.9ZM222.5 452.4h1.3v.7h-1.3ZM43.2 425.9h1.7v.7h-1.7ZM552.7 454.2h0.6v.7h-0.6ZM534.5 369.1h1.3v.7h-1.3ZM816.9 420.7h0.6v.7h-0.6ZM849.2 391h1v.7h-1ZM541.3 386h0.7v.7h-0.7ZM940.9 367.8h1.3v.7h-1.3ZM557.2 373.1h1.1v.7h-1.1ZM462 383.1h1.5v.7h-1.5ZM500.6 410.1h1.8v.7h-1.8ZM194.4 380.4h1.3v.7h-1.3ZM487 370.5h2.2v.7h-2.2ZM21.8 379.2h1.7v.7h-1.7ZM756 376.8h1.7v.7h-1.7ZM340.2 433.5h2.1v.7h-2.1ZM569.7 378.8h1.4v.7h-1.4ZM557.2 388.5h2.2v.7h-2.2ZM252.7 377.1h0.7v.7h-0.7ZM918.2 410.5h2.1v.7h-2.1ZM273.9 450.1h1.1v.7h-1.1ZM291.5 441.6h1.4v.7h-1.4ZM828.8 376.5h0.7v.7h-0.7ZM379.9 368.3h2.1v.7h-2.1ZM903.5 456.5h1.6v.7h-1.6ZM233.8 400.9h1.6v.7h-1.6ZM193.2 368.6h1.9v.7h-1.9ZM760 448h0.7v.7h-0.7ZM792.7 412.6h1.1v.7h-1.1ZM102.7 428.8h1v.7h-1ZM377.2 420.3h1v.7h-1ZM756.8 395.4h0.6v.7h-0.6ZM662.9 455.7h0.7v.7h-0.7ZM627.6 427.2h2.1v.7h-2.1ZM805.1 387.9h0.8v.7h-0.8ZM647.3 394.5h1.4v.7h-1.4ZM974.7 456.2h1.5v.7h-1.5ZM30.1 367.5h1.7v.7h-1.7Z" fill="#9fe6ff" opacity=".2"/>
<path d="M152.3 368h1.4v31h-1.4ZM700.3 368h1.4v28.5h-1.4ZM278.3 368h1.4v38h-1.4ZM612.3 368h1.4v34.6h-1.4ZM853.3 368h1.4v31h-1.4ZM461.3 368h1.4v23.4h-1.4Z" fill="#ff5a44" opacity=".22"/>
<path d="M317.5 480h19.2M818.9 405.9h60.3M120.6 395.3h68.5M164.3 389h54.6M519.7 432.9h44.2M512.9 452.2h11.2M824.8 441.7h49.6M456.6 374.2h42.7M952 417.4h50.6M346.8 403.8h54.4M865.9 446.1h60M826.2 402.4h41.5M742.8 394.8h30.6M669.2 424.5h53.6M161.5 448.2h33.8M847.1 486.6h52.7M379.2 529h53.6M518.1 523.1h10.4M800.5 384.4h22.5M299.7 379.7h29.9M284.6 493.4h61.9M765.8 509.5h67.3M490.7 435.8h20.5M496.2 413.8h65.2M742.9 430.1h36.9M156 377h61.4M516.5 415.1h50.2M349.7 402.7h15.2M515.1 505.2h31.7M475.6 495.2h55.6M710.8 379.4h67.7M190.8 400h28.4M373.6 484.6h60.6M868.5 425.8h52.4M266.7 533.3h52.3M658.6 467.5h36.7M737.5 448.1h33.6M894.5 370.3h45.3M414.4 426.9h50.3M549.6 491.2h64.8M116.4 375.5h57.1M499.4 372.2h22.6M427 526.6h24.4M630.8 371.4h49.3M345.8 467.3h56M661.5 533.3h30.9M741.9 531.2h31.5M499.6 429.8h30.3M839.4 495.4h31M78.4 468h60.8M340.5 400.6h69.1M779.2 494.9h39.5M803.9 446.1h55.9M779.9 376.2h12.7M734.5 497.2h22.6M130.9 439.5h36.2M761.3 432.7h37.1M272.1 403.2h15.9M339.8 433.8h45.2M810.4 526.7h24.6M722.7 414.2h52.1M857.2 437.1h68.2M707.2 481.4h31.5M252.9 380h15.8M280 521.1h57.8M774.4 379.4h19.6M230.6 413h46M170.7 473.8h55.9M359 527.2h56.2M206.4 409.8h37.3M162 415h40.1M569.9 454.2h14.6M860.6 480.7h18.4M717.4 383.6h24.4M954.5 392.2h25.6M90.9 491.5h45.6M173.2 465.4h23.1M926.3 402.6h21.7M801.1 485.1h30.6M316.3 509.3h63.6" stroke="#8fb0c4" stroke-width=".5" opacity=".12"/>
<path d="M0 364H960" stroke="#9fc4d2" stroke-width=".6" opacity=".2"/>
<rect width="960" height="540" fill="url(#vignette)"/>
</svg>
