<svg xmlns="http://www.w3.org/2000/svg" xmlns:xlink="http://www.w3.org/1999/xlink" width="120" height="100" viewBox="0 0 120 100">
<defs>
  <filter id="bevel" x="-5%" y="-5%" width="110%" height="110%" color-interpolation-filters="sRGB"><feGaussianBlur in="SourceAlpha" stdDeviation="1.1" result="height"/><feDiffuseLighting in="height" surfaceScale="2.6" diffuseConstant="1.18" lighting-color="#fff" result="diffuse"><feDistantLight azimuth="225" elevation="52"/></feDiffuseLighting><feSpecularLighting in="height" surfaceScale="2.6" specularConstant=".75" specularExponent="18" lighting-color="#fff4df" result="specular"><feDistantLight azimuth="225" elevation="44"/></feSpecularLighting><feComposite in="SourceGraphic" in2="diffuse" operator="arithmetic" k1="1" result="lit"/><feComposite in="specular" in2="SourceAlpha" operator="in" result="gloss"/><feComposite in="gloss" in2="lit" operator="arithmetic" k2=".38" k3="1" result="shaded"/><feComposite in="shaded" in2="SourceAlpha" operator="in"/></filter>
  <filter id="grime" x="0" y="0" width="100%" height="100%" color-interpolation-filters="sRGB"><feTurbulence type="fractalNoise" baseFrequency=".07 .12" numOctaves="3" seed="16" result="mottle"/><feTurbulence type="fractalNoise" baseFrequency="1.4" numOctaves="2" seed="5" result="grain"/><feComposite in="mottle" in2="grain" operator="arithmetic" k2=".7" k3=".3"/><feColorMatrix type="matrix" values="0 0 0 0 .1  0 0 0 0 .07  0 0 0 0 .05  -1.6 0 0 0 1.05"/><feComposite in2="SourceAlpha" operator="in"/></filter>
  <filter id="shadow" x="-20%" y="-20%" width="140%" height="150%"><feGaussianBlur in="SourceAlpha" stdDeviation="2.2"/><feOffset dx="2.5" dy="4.5" result="blur"/><feFlood flood-color="#02070d" flood-opacity=".5"/><feComposite in2="blur" operator="in"/></filter>
  <filter id="glow" x="-200%" y="-200%" width="500%" height="500%"><feGaussianBlur stdDeviation="1.5" result="halo"/><feMerge><feMergeNode in="halo"/><feMergeNode in="halo"/><feMergeNode in="SourceGraphic"/></feMerge></filter>
  <linearGradient id="left" x1="0" y1="0" x2="1" y2="1"><stop stop-color="#919186"/><stop offset=".48" stop-color="#656b62"/><stop offset="1" stop-color="#313a36"/></linearGradient>
  <linearGradient id="right" x1="0" y1="0" x2="1" y2="1"><stop stop-color="#777a71"/><stop offset=".5" stop-color="#535d56"/><stop offset="1" stop-color="#28322f"/></linearGradient>
  <linearGradient id="body" x1="0" x2="1"><stop stop-color="#363e3b"/><stop offset=".33" stop-color="#a1a698"/><stop offset=".43" stop-color="#858b80"/><stop offset=".7" stop-color="#505b54"/><stop offset="1" stop-color="#29322f"/></linearGradient>
  <radialGradient id="nozzle"><stop stop-color="#18100b"/><stop offset=".65" stop-color="#635549"/><stop offset="1" stop-color="#292e30"/></radialGradient>
  <g id="airframe"><path d="M49 10h22l8 17 36 6 1 13-38 27-9 13-9 10-9-10-9-13L4 46l1-13 36-6Z"/></g>
  <g id="drone"><path d="M0 12-2 5-10 2l1-2 7 1 1-7h2l1 7 7-1 1 2-8 3Z" fill="#7f8877" stroke="#222a27" stroke-width=".65"/><path d="M-9 1 0 4 9 1" stroke="#c1c2a8" stroke-width=".5" fill="none"/><path d="M0 12-1 4l1-8 1 8Z" fill="#9eaa96"/><circle cy="7" r="1" fill="#bc4935"/></g>
</defs>
<use href="#airframe" xlink:href="#airframe" filter="url(#shadow)"/>
<!-- Massive continuous lifting body, carrier-sized shoulder and armored trailing flaps. -->
<g filter="url(#bevel)"><path d="M49 21 5 33 4 46 42 73 53 76 57 44Z" fill="url(#left)"/><path d="M71 21 115 33 116 46 78 73 67 76 63 44Z" fill="url(#right)"/></g>
<path d="M5 34 46 27 M115 34 74 27 M5 45l37 26 M115 45 78 71" fill="none" stroke="#d1d0bc" stroke-width=".65" opacity=".58"/>
<g fill="none" stroke="#202a27" stroke-width=".7" opacity=".75"><path d="M8 39 47 34 44 63 6 44 M112 39 73 34l3 29 38-19 M18 50l12-5 M102 50l-12-5 M27 57l10-8 M93 57l-10-8 M27 29 27 47 M93 29v18"/></g>
<path d="M10 37 37 31l-2 7-25 5Z M110 37l-27-6 2 7 25 5Z" fill="#767b70" opacity=".8"/><path d="M12 39 34 34 M108 39l-22-5" stroke="#aeb09e" stroke-width=".5"/>
<path d="M12 45 30 42l-6 7-10 1Z M108 45 90 42l6 7 10 1Z" fill="#a18742" opacity=".72"/><path d="M16 46h9 M104 46h-9" stroke="#d6bb69" stroke-width=".65"/>
<!-- Three independent exhausts for the broad-frame lift engines. -->
<g filter="url(#bevel)" fill="#4b514b"><path d="M30 27 39 24l3 12-10 2Z M81 24l9 3-2 11-10-2Z M54 12h12l2 12H52Z"/></g>
<ellipse cx="35" cy="27" rx="4.4" ry="2.3" fill="url(#nozzle)"/><ellipse cx="85" cy="27" rx="4.4" ry="2.3" fill="url(#nozzle)"/><ellipse cx="60" cy="11" rx="5.6" ry="2.5" fill="url(#nozzle)"/><path d="M32 31v-5 M35 31v-5 M85 31v-5 M88 31v-5 M57 15v-5 M60 15V9 M63 15v-5" stroke="#202726" stroke-width=".55"/>
<!-- Recessed hangar and two E1-profile drones on yellow catapult guideways. -->
<path d="M36 44 84 44l-6 36-18 16-18-16Z" fill="#202724" stroke="#899083" stroke-width="1"/>
<path d="M42 49h36l-4 28-14 14-14-14Z" fill="#11191a"/><path d="M50 51v27 M70 51v27" fill="none" stroke="#ba9d4f" stroke-width="1.5"/><path d="M50 51v27 M70 51v27" fill="none" stroke="#eee0a4" stroke-width=".4" opacity=".75"/>
<use href="#drone" xlink:href="#drone" transform="translate(50 62) scale(.86)"/><use href="#drone" xlink:href="#drone" transform="translate(70 62) scale(.86)"/>
<path d="M35 46 46 48 46 78 42 82 35 75Z M85 46 74 48v30l4 4 7-7Z" fill="url(#left)" filter="url(#bevel)"/>
<path d="M38 50 44 51v24 M82 50l-6 1v24 M37 72l7 6 M83 72l-7 6" stroke="#222b28" stroke-width=".6" fill="none"/><path d="M39 56 43 57 M81 56l-4 1" stroke="#d3bd66" stroke-width="1.2"/>
<!-- Raised armored bridge and downward-facing command prow. -->
<path d="M60 9 51 29l-5 18h28l-5-18Z" fill="url(#body)" filter="url(#bevel)"/><path d="M54 27h12l5 17H49Z" fill="#303e3a" stroke="#1c2625" stroke-width=".7"/><path d="M54 28h12l3 11H51Z" fill="#697972"/><path d="M53 30 59 28l-6 9Z" fill="#d8d2b4" opacity=".7"/><path d="M50 41h20 M54 22h12 M60 13v10" stroke="#202b27" stroke-width=".65" fill="none"/>
<path d="M46 83 60 96 74 83l-14 8Z" fill="#586156"/><path d="M53 89 60 95l7-6" stroke="#d1b468" stroke-width="1.1" fill="none"/>
<path d="M11 34h10l-2 3H10Z M109 34H99l2 3h9Z M54 45h12" fill="#c2a64d"/><circle cx="13" cy="37" r=".75" fill="#ffcb6d" filter="url(#glow)"/><circle cx="107" cy="37" r=".75" fill="#ffcb6d" filter="url(#glow)"/>
<use href="#airframe" xlink:href="#airframe" filter="url(#grime)" opacity=".5"/>
</svg>
