<svg xmlns="http://www.w3.org/2000/svg" width="120" height="100" viewBox="0 0 120 100"><defs><linearGradient id="hull" x1="0" y1="0" x2="1" y2="1"><stop stop-color="#f6fbf6"/><stop offset=".19" stop-color="#c9b6a0"/><stop offset=".46" stop-color="#627d8a"/><stop offset=".73" stop-color="#202f37"/><stop offset="1" stop-color="#090f1e"/></linearGradient><linearGradient id="wing" x1="0" y1="0" x2=".8" y2="1"><stop stop-color="#8eabb7"/><stop offset=".29" stop-color="#202f37"/><stop offset=".69" stop-color="#607c8b"/><stop offset="1" stop-color="#101d29"/></linearGradient><linearGradient id="glass" x1=".15" y1="0" x2=".9" y2="1"><stop stop-color="#e6faff"/><stop offset=".18" stop-color="#76c7d4"/><stop offset=".55" stop-color="#204359"/><stop offset="1" stop-color="#091c2d"/></linearGradient><radialGradient id="core"><stop stop-color="#fff5da"/><stop offset=".28" stop-color="#d65b39"/><stop offset=".72" stop-color="#912c35"/><stop offset="1" stop-color="#251624"/></radialGradient><linearGradient id="steel" x1="0" y1="0" x2="0" y2="1"><stop stop-color="#e1eae7"/><stop offset=".36" stop-color="#67828b"/><stop offset=".65" stop-color="#192e3e"/><stop offset="1" stop-color="#090f1d"/></linearGradient><filter id="shadow" x="-25%" y="-25%" width="150%" height="160%"><feDropShadow dx="0" dy="3" stdDeviation="3" flood-color="#030c17" flood-opacity=".72"/></filter></defs><g filter="url(#shadow)"><path d="M60 5 71 39 109 17 118 23 84 58 97 86 76 76 60 96 44 76 23 86 36 58 2 23 11 17 49 39Z" fill="url(#wing)" stroke="#d4dfd6" stroke-width="1.4"/><path d="M6 18 25 24 43 42" fill="none" stroke="#c8ddd5" stroke-width="1"/><path d="M60 9Q49 30 50 52L46 75 60 94 74 75 70 52Q71 30 60 9Z" fill="url(#hull)" stroke="#f1efda" stroke-width="1.05"/><path d="M60 26Q48 37 52 53Q60 59 68 53Q72 37 60 26Z" fill="url(#glass)" stroke="#c6e1de"/><path d="M60 27 55 38 59 35" fill="#e8ffff" opacity=".8"/><path d="M50 59 70 59 M49 66 71 66 M52 74 68 74 M60 59v25" fill="none" stroke="#263b43" stroke-width=".95"/><path d="M53 77 46 81 60 96 74 81 67 77" fill="url(#steel)" stroke="#e1e4cc" stroke-width=".7"/><path d="M27 48 41 52 M93 48 79 52 M26 64 43 59 M94 64 77 59" stroke="#d65b39" stroke-width="1.25"/><path d="M32 60h8 M80 60h8" stroke="#e0eadb" stroke-width="1"/><path d="M32.5 45.5h7l3 1.5-3 1.5h-7l-3-1.5Z" fill="url(#steel)" stroke="#d3e0dc" stroke-width=".45"/><path d="M80.5 45.5h7l3 1.5-3 1.5h-7l-3-1.5Z" fill="url(#steel)" stroke="#d3e0dc" stroke-width=".45"/><circle cx="25" cy="51" r=".95" fill="#d4e7e2" stroke="#1b3341" stroke-width=".55"/><circle cx="35" cy="55" r=".95" fill="#d4e7e2" stroke="#1b3341" stroke-width=".55"/><circle cx="43" cy="66" r=".95" fill="#d4e7e2" stroke="#1b3341" stroke-width=".55"/><circle cx="95" cy="51" r=".95" fill="#d4e7e2" stroke="#1b3341" stroke-width=".55"/><circle cx="85" cy="55" r=".95" fill="#d4e7e2" stroke="#1b3341" stroke-width=".55"/><circle cx="77" cy="66" r=".95" fill="#d4e7e2" stroke="#1b3341" stroke-width=".55"/><circle cx="56" cy="81" r=".95" fill="#d4e7e2" stroke="#1b3341" stroke-width=".55"/><circle cx="64" cy="81" r=".95" fill="#d4e7e2" stroke="#1b3341" stroke-width=".55"/><circle cx="60" cy="69" r="3" fill="#d65b39" stroke="#e6f6db" stroke-width=".7"/><path d="M58 90h4" stroke="#d65b39" stroke-width="2"/></g></svg>