<svg xmlns="http://www.w3.org/2000/svg" xmlns:xlink="http://www.w3.org/1999/xlink" width="512" height="512" viewBox="0 0 512 512">
<defs>
  <linearGradient id="bezel" x1="0" y1="0" x2="1" y2="1"><stop stop-color="#dce4e6"/><stop offset=".19" stop-color="#71838c"/><stop offset=".43" stop-color="#374d5b"/><stop offset=".72" stop-color="#95a6ab"/><stop offset="1" stop-color="#253641"/></linearGradient>
  <linearGradient id="well" x1="0" y1="0" x2="1" y2="1"><stop stop-color="#223a4d"/><stop offset=".42" stop-color="#0c1b29"/><stop offset="1" stop-color="#06121e"/></linearGradient>
  <linearGradient id="wingL" x1="0" y1="0" x2="0" y2="1"><stop stop-color="#f1f4f5"/><stop offset=".55" stop-color="#c4ced3"/><stop offset="1" stop-color="#788d98"/></linearGradient>
  <linearGradient id="wingR" x1="0" y1="0" x2="0" y2="1"><stop stop-color="#c7d2d6"/><stop offset=".55" stop-color="#9daeb8"/><stop offset="1" stop-color="#5b727f"/></linearGradient>
  <linearGradient id="body" x1="0" y1="0" x2="1" y2="0"><stop stop-color="#6c808c"/><stop offset=".21" stop-color="#e3e9e9"/><stop offset=".39" stop-color="#faf9f3"/><stop offset=".63" stop-color="#bcc9ce"/><stop offset="1" stop-color="#546a75"/></linearGradient>
  <linearGradient id="carbon" x1="0" y1="0" x2="1" y2="1"><stop stop-color="#54636b"/><stop offset=".35" stop-color="#303e48"/><stop offset="1" stop-color="#131e28"/></linearGradient>
  <linearGradient id="glass" x1="0" y1="0" x2="1" y2="1"><stop stop-color="#b4e3ec"/><stop offset=".23" stop-color="#406d7d"/><stop offset=".45" stop-color="#162733"/><stop offset=".73" stop-color="#68502d"/><stop offset="1" stop-color="#dbb774"/></linearGradient>
  <linearGradient id="film" x1="0" y1="0" x2="1" y2="1"><stop stop-color="#71f4f7"/><stop offset=".52" stop-color="#aeacfb"/><stop offset="1" stop-color="#efbd90"/></linearGradient>
  <filter id="shadow" x="-15%" y="-15%" width="130%" height="135%"><feGaussianBlur in="SourceAlpha" stdDeviation="2.1" result="soft"/><feOffset in="soft" dx="1" dy="3" result="offset"/><feFlood flood-color="#010711" flood-opacity=".8"/><feComposite in2="offset" operator="in"/></filter>
  <filter id="glow" x="-80%" y="-180%" width="260%" height="460%"><feGaussianBlur stdDeviation="1.1" result="halo"/><feMerge><feMergeNode in="halo"/><feMergeNode in="SourceGraphic"/></feMerge></filter>
  <path id="fighter" d="M80 3C77 8 75.5 14 74.5 22L73 28 56 38 56.5 41.5 70.6 42.5 14 80 8 84 9 90 38 92 46 99 59 100 59 112H70.5L72 104 80 107 88 104 89.5 112H101V100L114 99 122 92 151 90 152 84 146 80 89.4 42.5 103.5 41.5 104 38 87 28 85.5 22C84.5 14 83 8 80 3Z"/>
</defs>
<!-- Six-sided aircraft identification plate; corners remain transparent as a favicon. -->
<path d="M256 18 454 128V384L256 494 58 384V128Z" fill="url(#bezel)"/>
<path d="M256 29 444 134V378L256 483 68 378V134Z" fill="#09131f"/>
<path d="M256 35 438 138V374L256 477 74 374V138Z" fill="url(#well)"/>
<path d="M256 41 431 142 M81 143 256 41 M81 369 256 470 431 369" fill="none" stroke="#96bdca" stroke-opacity=".23" stroke-width="2"/>
<path d="M78 197V144L256 42 434 144v57 M434 317v56L256 474 78 373v-56" fill="none" stroke="#c4dce0" stroke-opacity=".12" stroke-width="3"/>
<path d="M255 52V75 M256 439v19 M82 256h16 M414 256h16" stroke="#65daee" stroke-opacity=".59" stroke-width="3" stroke-linecap="round"/>
<!-- Enlarged top-down cranked-kite fighter; silhouette follows the playable airframe. -->
<g transform="translate(62 79) scale(2.425 2.98)">
  <use href="#fighter" xlink:href="#fighter" filter="url(#shadow)"/>
  <path d="M71 43 14 80 8 84 9 90 38 92 46 99 60 100 67 62Z M73 28 56 38 56.5 41.5 72.4 37Z" fill="url(#wingL)"/>
  <path d="M89 43 146 80 152 84 151 90 122 92 114 99 100 100 93 62Z M87 28 104 38 103.5 41.5 87.6 37Z" fill="url(#wingR)"/>
  <path d="M71 43 14 80 8 84 9 90 38 92 46 99 60 100 67 62Z M89 43 146 80 152 84 151 90 122 92 114 99 100 100 93 62Z" fill="url(#film)" opacity=".12"/>
  <path d="M71 43 14 80 8 84 10 85 15 81.5 71.8 45Z M89 43 146 80 152 84 150 85 145 81.5 88.2 45Z" fill="url(#carbon)"/>
  <path d="M9 88.5 38 90.5 46 96.5 59 97.5v2.5l-13-1-8-7-29-2Z M151 88.5 122 90.5 114 96.5l-13 1v2.5l13-1 8-7 29-2Z" fill="#3a4d59"/>
  <path d="M23 80.7 59 56 M137 80.7 101 56" fill="none" stroke="#f6faf8" stroke-opacity=".65" stroke-width=".7"/>
  <path d="M22 85.5 43 86.5l14 9 M138 85.5 117 86.5l-14 9" fill="none" stroke="#263744" stroke-opacity=".65" stroke-width=".7"/>
  <path d="M66 63 44 90 48 95 60 96 64 72Z M94 63l22 27-4 5-12 1-4-24Z" fill="url(#carbon)" opacity=".83"/>
  <path d="M65 65 45 90 M95 65l20 25" fill="none" stroke="#7bdcf0" stroke-opacity=".62" stroke-width=".5"/>
  <path d="M58.5 77 58 104h14l2-40-8-12Z M101.5 77l.5 27H88l-2-40 8-12Z" fill="url(#body)"/>
  <path d="M59 103.5H71v9H59Z M89 103.5h12v9H89Z" fill="#26343d"/>
  <path d="M59 104h12 M89 104h12" stroke="#d3e2e4" stroke-width=".65"/>
  <path d="M62 106v5 M65 106v5 M68 106v5 M92 106v5 M95 106v5 M98 106v5" stroke="#101d26" stroke-width=".75"/>
  <path d="M60 111.3h10 M90 111.3h10" stroke="#49d8ed" stroke-width="2.3" filter="url(#glow)"/>
  <path d="M62 111.1h6 M92 111.1h6" stroke="#d9ffff" stroke-width=".55"/>
  <path d="M80 3C77 8 75.5 14 74.5 22L72 40 68.6 62 66 98 72 104 80 107 88 104 94 98 91.4 62 88 40 85.5 22C84.5 14 83 8 80 3Z" fill="url(#body)"/>
  <path d="M80 3C77 8 75.5 14 74.5 22L72 40 68.6 62 66 98 72 104 80 107 88 104 94 98 91.4 62 88 40 85.5 22C84.5 14 83 8 80 3Z" fill="url(#film)" opacity=".09"/>
  <path d="M79.5 6 75.2 22 72.7 44M80.5 6 84.8 22 87.3 44" fill="none" stroke="#fff" stroke-opacity=".53" stroke-width=".62"/>
  <path d="M72 44.5 75.1 44.5 74.4 54 70.8 54Z M88 44.5l-3.1 0 .7 9.5 3.6 0Z" fill="#273942"/>
  <path d="M80 13C76.4 16 75.1 22 75.2 30c.1 7 1.9 11 4.8 13 2.9-2 4.7-6 4.8-13 .1-8-1.2-14-4.8-17Z" fill="#13212b"/>
  <path d="M80 14C77 17 76.1 22 76.2 30c.1 6 1.5 9.8 3.8 11.3 2.3-1.5 3.7-5.3 3.8-11.3.1-8-1-13-3.8-16Z" fill="url(#glass)"/>
  <path d="M78.8 17.5c-1.6 3-1.9 8-1.4 13" fill="none" stroke="#e7ffff" stroke-opacity=".8" stroke-width=".8" stroke-linecap="round"/>
  <path d="M77.8 47 76.5 71 M82.2 47 83.5 71" fill="none" stroke="#49616a" stroke-opacity=".5" stroke-width=".55"/>
  <circle cx="80" cy="55" r="3.5" fill="#344751"/><circle cx="80" cy="55" r="2" fill="#72d5e5"/><circle cx="79.4" cy="54.4" r=".65" fill="#fff"/>
  <path d="M38 89h8 M114 89h8 M54 43h5 M101 43h5" stroke="#60e4f4" stroke-width=".9" stroke-linecap="round" filter="url(#glow)"/>
  <path d="M78.9 8.8 80 7.4l1.1 1.4L80 10Z" fill="#2c5364"/>
</g>
</svg>
